<?xml version="1.0" encoding="utf-8"?>
<!-- Generator: Adobe Illustrator 16.0.0, SVG Export Plug-In . SVG Version: 6.00 Build 0)  -->
<!DOCTYPE svg PUBLIC "-//W3C//DTD SVG 1.1//EN" "http://www.w3.org/Graphics/SVG/1.1/DTD/svg11.dtd">
<svg version="1.1" id="Ebene_1" xmlns="http://www.w3.org/2000/svg" xmlns:xlink="http://www.w3.org/1999/xlink" x="0px" y="0px"
	 width="130.7px" height="40px" viewBox="0 0 130.7 40" enable-background="new 0 0 130.7 40" xml:space="preserve">
<path fill="#0082C6" d="M36.6,20.4c4.5-1.6,7.7-5.2,7.7-10.5c0-1.3-0.7-4.6-3.1-6.7c-1.6-1.4-4-3-11.5-3.2c-1.6,0-6.3,0.1-6.3,0.1
	v0.3c1.3,1,2.8,2.7,3.5,4.7c0.7,0,1.8-0.1,2.9,0c3,0.2,4.4,0.7,5.7,1.8c1.4,1.1,2.1,2.9,2.1,4.6c0,2.3-1.1,4.7-4.4,6
	c-2.7,1.1-5.9,1.3-5.9,1.3l0,0.8c0,0,1.9,0.9,3.9,3.5c1.7,2.2,11.4,16.5,11.4,16.5h8C50.5,39.8,37.6,21.7,36.6,20.4"/>
<path fill="#0082C6" d="M19,18.4C22,16.6,24,13.9,24,9.9C24,5.7,21.5,0,10.9,0C5.7,0,0,0.2,0,0.2v39.6h9.1
	c11.5,0,17.6-4.3,17.6-12.3C26.7,22.7,23.7,19.5,19,18.4 M10.9,34.3H6.4V5.1c0.1,0,2,0,3.2,0c5,0,7.8,2.6,7.9,6.2
	c0,2.2-0.6,4.2-2.8,5.8c-1.8,1.2-4.3,1.6-4.3,1.6v0.9c0,0,3.5,0.5,5.2,1.3c3.3,1.5,4.3,3.9,4.3,7C20,32.8,15.3,34.3,10.9,34.3"/>
<g>
	<path d="M50.6,12.9v5.9h-0.9V5.3h3.2c1.7,0,2.9,0.3,3.7,0.9c0.8,0.6,1.2,1.5,1.2,2.8c0,0.9-0.2,1.7-0.7,2.3
		c-0.5,0.6-1.2,1.1-2.2,1.3l3.7,6.1h-1.1l-3.5-5.9H50.6z M50.6,12.1h2.6c1.1,0,2-0.3,2.6-0.8s0.9-1.3,0.9-2.2c0-1-0.3-1.8-0.9-2.2
		c-0.6-0.5-1.6-0.7-3-0.7h-2.2V12.1z"/>
	<path d="M63.9,19c-1.5,0-2.6-0.4-3.4-1.3s-1.2-2.1-1.2-3.8c0-1.6,0.4-2.9,1.2-3.8c0.8-1,1.8-1.4,3.2-1.4c1.2,0,2.1,0.4,2.8,1.2
		c0.7,0.8,1,1.9,1,3.3v0.7h-7.2c0,1.4,0.3,2.4,1,3.1c0.6,0.7,1.5,1.1,2.7,1.1c0.6,0,1.1,0,1.5-0.1c0.4-0.1,1-0.3,1.6-0.5v0.8
		c-0.6,0.2-1.1,0.4-1.6,0.5C65,18.9,64.4,19,63.9,19z M63.6,9.4c-1,0-1.7,0.3-2.3,1c-0.6,0.6-0.9,1.5-1,2.7h6.2
		c0-1.2-0.3-2.1-0.8-2.7C65.2,9.7,64.5,9.4,63.6,9.4z"/>
	<path d="M73.6,19c-1.4,0-2.5-0.5-3.4-1.4c-0.8-0.9-1.2-2.2-1.2-3.8c0-1.7,0.4-2.9,1.3-3.9c0.8-0.9,2-1.4,3.4-1.4
		c0.9,0,1.7,0.2,2.5,0.5L76,9.9c-0.9-0.3-1.6-0.4-2.3-0.4c-1.2,0-2.2,0.4-2.8,1.1c-0.6,0.8-0.9,1.8-0.9,3.3c0,1.3,0.3,2.4,0.9,3.2
		c0.6,0.8,1.5,1.1,2.6,1.1c0.9,0,1.8-0.2,2.5-0.5v0.8C75.5,18.8,74.6,19,73.6,19z"/>
	<path d="M84.9,18.8v-6.5c0-1-0.2-1.7-0.6-2.2c-0.4-0.5-1.1-0.7-2-0.7c-1.2,0-2.1,0.3-2.6,0.9c-0.6,0.6-0.8,1.6-0.8,2.9v5.5h-0.9
		V4.5h0.9V9l0,1.3h0.1c0.4-0.6,0.8-1,1.4-1.3c0.6-0.3,1.3-0.4,2.1-0.4c2.3,0,3.4,1.2,3.4,3.7v6.5H84.9z"/>
	<path d="M92.4,19c-1.5,0-2.6-0.4-3.4-1.3s-1.2-2.1-1.2-3.8c0-1.6,0.4-2.9,1.2-3.8c0.8-1,1.8-1.4,3.2-1.4c1.2,0,2.1,0.4,2.8,1.2
		c0.7,0.8,1,1.9,1,3.3v0.7h-7.2c0,1.4,0.3,2.4,1,3.1c0.6,0.7,1.5,1.1,2.7,1.1c0.6,0,1.1,0,1.5-0.1c0.4-0.1,1-0.3,1.6-0.5v0.8
		c-0.6,0.2-1.1,0.4-1.6,0.5C93.5,18.9,93,19,92.4,19z M92.1,9.4c-1,0-1.7,0.3-2.3,1c-0.6,0.6-0.9,1.5-1,2.7H95
		c0-1.2-0.3-2.1-0.8-2.7C93.7,9.7,93,9.4,92.1,9.4z"/>
	<path d="M101.9,8.6c0.4,0,0.9,0,1.4,0.1l-0.2,0.9c-0.4-0.1-0.8-0.2-1.3-0.2c-0.9,0-1.6,0.4-2.1,1.1s-0.8,1.6-0.8,2.7v5.5H98v-10
		h0.8l0.1,1.8h0.1c0.4-0.7,0.8-1.3,1.3-1.5C100.7,8.7,101.2,8.6,101.9,8.6z"/>
</g>
<g>
	<path d="M108.2,19c-1.4,0-2.5-0.5-3.4-1.4s-1.2-2.2-1.2-3.8c0-1.7,0.4-2.9,1.3-3.9s2-1.4,3.4-1.4c0.9,0,1.7,0.2,2.5,0.5l-0.2,0.8
		c-0.9-0.3-1.6-0.4-2.3-0.4c-1.2,0-2.2,0.4-2.8,1.1s-0.9,1.8-0.9,3.3c0,1.3,0.3,2.4,0.9,3.2c0.6,0.8,1.5,1.1,2.6,1.1
		c0.9,0,1.8-0.2,2.5-0.5v0.8C110.1,18.8,109.3,19,108.2,19z"/>
</g>
<g>
	<path d="M119.3,18.8v-6.5c0-1-0.2-1.7-0.6-2.2c-0.4-0.5-1.1-0.7-2-0.7c-1.2,0-2.1,0.3-2.6,0.9c-0.6,0.6-0.8,1.6-0.8,2.9v5.5h-0.9
		V4.5h0.9V9l0,1.3h0.1c0.4-0.6,0.8-1,1.4-1.3c0.6-0.3,1.3-0.4,2.1-0.4c2.3,0,3.4,1.2,3.4,3.7v6.5H119.3z"/>
	<path d="M126.9,19c-1.5,0-2.6-0.4-3.4-1.3c-0.8-0.9-1.2-2.1-1.2-3.8c0-1.6,0.4-2.9,1.2-3.8s1.8-1.4,3.2-1.4c1.2,0,2.1,0.4,2.8,1.2
		c0.7,0.8,1,1.9,1,3.3v0.7h-7.2c0,1.4,0.3,2.4,1,3.1c0.6,0.7,1.5,1.1,2.7,1.1c0.6,0,1.1,0,1.5-0.1c0.4-0.1,1-0.3,1.6-0.5v0.8
		c-0.6,0.2-1.1,0.4-1.6,0.5C128,18.9,127.4,19,126.9,19z M126.6,9.4c-1,0-1.7,0.3-2.3,1c-0.6,0.6-0.9,1.5-1,2.7h6.2
		c0-1.2-0.3-2.1-0.8-2.7C128.2,9.7,127.5,9.4,126.6,9.4z"/>
</g>
<g>
</g>
<g>
</g>
<g>
</g>
<g>
</g>
<g>
</g>
<g>
</g>
<g>
</g>
<g>
</g>
<g>
</g>
<g>
</g>
<g>
</g>
<g>
</g>
<g>
</g>
<g>
</g>
<g>
</g>
</svg>
