<?xml version="1.0" encoding="utf-8"?>
<!-- Generator: Adobe Illustrator 16.0.0, SVG Export Plug-In . SVG Version: 6.00 Build 0)  -->
<!DOCTYPE svg PUBLIC "-//W3C//DTD SVG 1.1//EN" "http://www.w3.org/Graphics/SVG/1.1/DTD/svg11.dtd">
<svg version="1.1" id="Ebene_1" xmlns="http://www.w3.org/2000/svg" xmlns:xlink="http://www.w3.org/1999/xlink" x="0px" y="0px"
	 width="240px" height="240px" viewBox="0 0 240 240" enable-background="new 0 0 240 240" xml:space="preserve">
<g opacity="0.8">
	<path fill="#D81D09" stroke="#000000" stroke-linecap="round" stroke-linejoin="round" d="M204.5,144.3l6.6-4.4l-2.2-9l4.4-2.2
		v-6.6l-4.4-4.4l6.6-4.4l2.2-6.6l-4.4-4.4l-6.6,2.2l4.4-9l-15.4-2.2l-4.4-9v-6.6l11-13.1l-20.1-22.1h-9l-6.3,8.7l-15.3,4.1v-9
		l-11.8-4h-7.4v8.8h-3.7l-17.9-24.7l-15.6,4.4l-11.2-6.8l-4.4,4.4l-11.2-2.2L57.4,33l-9-2.4L44,39.4h-4.3v4.7l-4.4,2.2l-13.2-2.2
		v8.5h4.4v7.1l-4.4,4.4v6.6l6.5,4.4l2.2-2.2l13.4,13.4l13.4,2.2v6.6l9,2.2l9,9l2.2,6.6l-11.2,11.2l-9-2.2l-2.2-6.6l-13.4,6.6
		l-13.4-6.6l-2.2,13.4l13.4,4.4l-2.2,6.6l9,11.2l2.2,11.2l-4.4,4.4l2.2,13.4l24.6,2.6l2.2-6.3h4.4l9,4.1l2.2,4.3l-4.4,2.2l-6.6,22.3
		l2.2,6.8h11.2l-2.2-6.9l13.4-11.2l9,4.4l4.6-6.8l-6.6-9v-9l10.3-6.6v-6.6l20.3-4.7l-4.1-15.9h-4.4v-4l4.4-2.2l15.6-2.2l22.2,9
		l4.4-4.4l2.2,11.2l17.8-2.2l4.4,6.6l6.6,2.2l9-11.2l-6.6,2.2L204.5,144.3z M148.8,115.3l-9,2.4l-9,15.7h-4.4l-6.6-13.5l-17.8,2.1
		l-9-6.8l11.2-4.4l-9-13.4l9-11.2l4.4,2.2l6.8-4.4l15.6,6.6v8.8h6.6l4.4,4.4l11.2-2.2l6.6,4.4L148.8,115.3z"/>
	<polygon fill="#DFEDF7" stroke="#000000" stroke-linecap="round" stroke-linejoin="round" points="142.2,104.1 137.6,99.7 
		131,99.7 131,90.9 115.4,84.1 108.7,88.5 104.3,86.3 95.3,97.5 104.3,110.9 93.1,115.3 102.1,122.1 119.9,120 126.5,133.5 
		131,133.5 139.8,117.8 148.8,115.4 160,106.5 153.2,101.9 	"/>
</g>
</svg>
