<?xml version="1.0" encoding="utf-8"?>
<!-- Generator: Adobe Illustrator 16.0.0, SVG Export Plug-In . SVG Version: 6.00 Build 0)  -->
<!DOCTYPE svg PUBLIC "-//W3C//DTD SVG 1.1//EN" "http://www.w3.org/Graphics/SVG/1.1/DTD/svg11.dtd">
<svg version="1.1" id="Ebene_1" xmlns="http://www.w3.org/2000/svg" xmlns:xlink="http://www.w3.org/1999/xlink" x="0px" y="0px"
	 width="240px" height="240px" viewBox="-12.5 0 240 240" enable-background="new -12.5 0 240 240" xml:space="preserve">
<g opacity="0.8">
	<path fill="#D81D09" stroke="#000000" stroke-linecap="round" stroke-linejoin="round" d="M199.1,146.5l7.2-4.8l-2.4-9.7l4.8-2.4
		v-7.2l-4.8-4.8l7.2-4.8l2.4-7.2l-4.8-4.8l-7.2,2.4l4.8-9.7l-16.7-2.4l-4.8-9.7v-7.2l11.9-14.2l-21.8-23.9h-9.7l-6.9,9.4l-16.6,4.5
		v-9.7L129,36.1h-8v9.6h-4L97.6,18.9l-16.9,4.8l-12.1-7.3l-4.8,4.8l-12.1-2.4l-12.1,7.2l-9.7-2.5l-4.8,9.6h-4.6V38l-4.8,2.4L1.4,38
		v9.2h4.8v7.6l-4.8,4.8v7.2l7,4.8l2.4-2.4l14.5,14.5l14.5,2.4v7.2l9.7,2.4l9.7,9.7l2.4,7.2l-12.1,12.1l-9.7-2.4l-2.4-7.2l-14.5,7.2
		l-14.5-7.2L6,129.6l14.5,4.8l-2.4,7.2l9.7,12.1l2.4,12.1l-4.8,4.8l2.4,14.5l26.6,2.9l2.4-6.8h4.8l9.7,4.5l2.4,4.6l-4.8,2.4
		l-7.2,24.2l2.4,7.3h12.1l-2.4-7.5l14.5-12.1l9.7,4.8l4.9-7.3l-7.2-9.7v-9.7l11.2-7.2v-7.2l22-5.1l-4.5-17.2h-4.8v-4.3l4.8-2.4
		l16.9-2.4l24.1,9.7l4.8-4.8l2.4,12.1l19.3-2.4l4.8,7.2l7.2,2.4l9.7-12.1l-7.2,2.4L199.1,146.5z M138.7,115.1l-9.7,2.5l-9.7,17h-4.8
		l-7.2-14.7l-19.3,2.2l-9.7-7.3l12.1-4.8l-9.7-14.5l9.7-12.1l4.8,2.4l7.3-4.8l16.9,7.2v9.6h7.2l4.8,4.8l12.1-2.4l7.2,4.8
		L138.7,115.1z"/>
	<polygon fill="#DFEDF7" stroke="#000000" stroke-linecap="round" stroke-linejoin="round" points="131.6,103 126.6,98.2 
		119.4,98.2 119.4,88.6 102.6,81.3 95.2,86.1 90.5,83.7 80.7,95.8 90.5,110.3 78.3,115.1 88.1,122.4 107.3,120.2 114.5,134.8 
		119.4,134.8 129,117.8 138.7,115.2 150.8,105.5 143.5,100.6 	"/>
</g>
<g enable-background="new    ">
	<path d="M69.5,138c0,1.3-0.5,2.2-1.4,2.9S66,142,64.4,142c-1.7,0-3-0.2-3.9-0.7v-1.6c0.6,0.2,1.2,0.4,1.9,0.6s1.4,0.2,2.1,0.2
		c1.1,0,1.9-0.2,2.5-0.6s0.8-1,0.8-1.8c0-0.5-0.1-0.9-0.3-1.2s-0.5-0.6-1-0.9s-1.2-0.6-2.1-0.9c-1.3-0.5-2.3-1-2.8-1.7
		s-0.9-1.5-0.9-2.5c0-1.1,0.4-2,1.2-2.6s1.9-1,3.3-1c1.4,0,2.7,0.3,3.9,0.8l-0.5,1.4c-1.2-0.5-2.3-0.7-3.4-0.7
		c-0.9,0-1.6,0.2-2.1,0.6s-0.7,0.9-0.7,1.6c0,0.5,0.1,0.9,0.3,1.2s0.5,0.6,0.9,0.9s1.1,0.6,2,0.9c1.5,0.5,2.5,1.1,3.1,1.7
		S69.5,137,69.5,138z"/>
	<path d="M75.7,140.7c0.3,0,0.6,0,0.8-0.1s0.5-0.1,0.6-0.1v1.2c-0.2,0.1-0.4,0.2-0.8,0.2s-0.6,0.1-0.9,0.1c-2.1,0-3.1-1.1-3.1-3.3
		v-6.4h-1.5v-0.8l1.5-0.7l0.7-2.3h0.9v2.5H77v1.3h-3.1v6.3c0,0.6,0.2,1.1,0.5,1.5S75.1,140.7,75.7,140.7z"/>
	<path d="M85.8,141.8l-0.3-1.5h-0.1c-0.5,0.7-1.1,1.1-1.6,1.4s-1.2,0.4-2,0.4c-1.1,0-1.9-0.3-2.5-0.8s-0.9-1.3-0.9-2.3
		c0-2.2,1.7-3.3,5.2-3.4l1.8-0.1v-0.7c0-0.8-0.2-1.5-0.5-1.9s-0.9-0.6-1.7-0.6c-0.9,0-1.9,0.3-3,0.8l-0.5-1.2
		c0.5-0.3,1.1-0.5,1.7-0.7s1.3-0.2,1.9-0.2c1.3,0,2.2,0.3,2.8,0.8s0.9,1.5,0.9,2.7v7.3H85.8z M82.2,140.7c1,0,1.8-0.3,2.4-0.8
		s0.9-1.3,0.9-2.3v-1l-1.6,0.1c-1.3,0-2.2,0.2-2.8,0.6s-0.9,0.9-0.9,1.7c0,0.6,0.2,1,0.5,1.3S81.5,140.7,82.2,140.7z"/>
	<path d="M97.7,140.4L97.7,140.4c-0.8,1.1-2,1.6-3.4,1.6c-1.4,0-2.5-0.5-3.3-1.4s-1.2-2.3-1.2-4.1s0.4-3.1,1.2-4.1s1.9-1.5,3.3-1.5
		c1.5,0,2.6,0.5,3.3,1.6h0.1l-0.1-0.8l0-0.8v-4.4h1.6v15.2h-1.3L97.7,140.4z M94.4,140.6c1.1,0,1.9-0.3,2.4-0.9s0.7-1.6,0.7-2.9
		v-0.3c0-1.5-0.3-2.6-0.8-3.2s-1.3-1-2.4-1c-1,0-1.7,0.4-2.2,1.1s-0.8,1.8-0.8,3.1c0,1.4,0.3,2.4,0.8,3.1S93.5,140.6,94.4,140.6z"/>
	<path d="M106.1,140.7c0.3,0,0.6,0,0.8-0.1s0.5-0.1,0.6-0.1v1.2c-0.2,0.1-0.4,0.2-0.8,0.2s-0.6,0.1-0.9,0.1c-2.1,0-3.1-1.1-3.1-3.3
		v-6.4h-1.5v-0.8l1.5-0.7l0.7-2.3h0.9v2.5h3.1v1.3h-3.1v6.3c0,0.6,0.2,1.1,0.5,1.5S105.6,140.7,106.1,140.7z"/>
</g>
<g enable-background="new    ">
	<path d="M70.2,155.8c0,2.5-0.4,4.3-1.2,5.5s-2.1,1.8-3.8,1.8c-1.6,0-2.9-0.6-3.7-1.9s-1.3-3.1-1.3-5.5c0-2.5,0.4-4.4,1.2-5.6
		s2.1-1.8,3.8-1.8c1.6,0,2.9,0.6,3.7,1.9S70.2,153.4,70.2,155.8z M63.2,155.8c0,1.8,0.2,3,0.5,3.8s0.8,1.1,1.5,1.1
		c0.7,0,1.2-0.4,1.5-1.2s0.5-2,0.5-3.8c0-1.8-0.2-3-0.5-3.8s-0.8-1.1-1.5-1.1c-0.7,0-1.2,0.4-1.5,1.1S63.2,154,63.2,155.8z"/>
	<path d="M78.3,152.9c0,1.5-0.3,2.6-0.9,3.4s-1.4,1.1-2.5,1.1c-1.1,0-1.9-0.4-2.5-1.2s-0.9-1.9-0.9-3.3c0-3,1.1-4.5,3.4-4.5
		c1.1,0,1.9,0.4,2.5,1.2S78.3,151.5,78.3,152.9z M74,152.9c0,0.8,0.1,1.4,0.2,1.9s0.4,0.6,0.7,0.6c0.6,0,0.9-0.8,0.9-2.5
		c0-1.6-0.3-2.4-0.9-2.4c-0.3,0-0.6,0.2-0.7,0.6S74,152.1,74,152.9z M85,148.6l-7.9,14.3h-2.3l7.9-14.3H85z M88.3,158.6
		c0,1.5-0.3,2.6-0.9,3.4s-1.4,1.1-2.5,1.1c-1.1,0-1.9-0.4-2.5-1.2s-0.9-1.9-0.9-3.3c0-3,1.1-4.5,3.4-4.5c1.1,0,1.9,0.4,2.5,1.2
		S88.3,157.2,88.3,158.6z M84,158.6c0,0.8,0.1,1.4,0.2,1.9s0.4,0.6,0.7,0.6c0.6,0,0.9-0.8,0.9-2.5c0-1.6-0.3-2.4-0.9-2.4
		c-0.3,0-0.6,0.2-0.7,0.6S84,157.8,84,158.6z"/>
</g>
<g enable-background="new    ">
	<path d="M24.3,54.1V39.8h1.7v12.8h6.3v1.5H24.3z"/>
	<path d="M41,54.1l-0.3-1.5h-0.1c-0.5,0.7-1.1,1.1-1.6,1.4s-1.2,0.4-2,0.4c-1.1,0-1.9-0.3-2.5-0.8s-0.9-1.3-0.9-2.3
		c0-2.2,1.7-3.3,5.2-3.4l1.8-0.1V47c0-0.8-0.2-1.5-0.5-1.9s-0.9-0.6-1.7-0.6c-0.9,0-1.9,0.3-3,0.8l-0.5-1.2c0.5-0.3,1.1-0.5,1.7-0.7
		s1.3-0.2,1.9-0.2c1.3,0,2.2,0.3,2.8,0.8s0.9,1.5,0.9,2.7v7.3H41z M37.3,53c1,0,1.8-0.3,2.4-0.8s0.9-1.3,0.9-2.3v-1l-1.6,0.1
		c-1.3,0-2.2,0.2-2.8,0.6s-0.9,0.9-0.9,1.7c0,0.6,0.2,1,0.5,1.3S36.7,53,37.3,53z"/>
	<path d="M52.8,54.1v-6.9c0-0.9-0.2-1.5-0.6-2s-1-0.6-1.9-0.6c-1.1,0-1.9,0.3-2.5,0.9s-0.8,1.6-0.8,3v5.6h-1.6V43.4h1.3l0.3,1.5h0.1
		c0.3-0.5,0.8-0.9,1.4-1.2s1.3-0.4,2-0.4c1.3,0,2.3,0.3,2.9,0.9s1,1.6,1,3v7H52.8z"/>
	<path d="M65.1,52.7L65.1,52.7c-0.8,1.1-2,1.6-3.4,1.6c-1.4,0-2.5-0.5-3.3-1.4s-1.2-2.3-1.2-4.1s0.4-3.1,1.2-4.1s1.9-1.5,3.3-1.5
		c1.5,0,2.6,0.5,3.3,1.6h0.1L65,44l0-0.8v-4.4h1.6v15.2h-1.3L65.1,52.7z M61.8,52.9c1.1,0,1.9-0.3,2.4-0.9s0.7-1.6,0.7-2.9v-0.3
		c0-1.5-0.3-2.6-0.8-3.2s-1.3-1-2.4-1c-1,0-1.7,0.4-2.2,1.1s-0.8,1.8-0.8,3.1c0,1.4,0.3,2.4,0.8,3.1S60.9,52.9,61.8,52.9z"/>
	<path d="M71.7,48.6c0.3-0.4,0.7-0.9,1.3-1.6l3.5-3.7h1.9L74,48l4.6,6.1h-2L72.9,49l-1.2,1.1v4h-1.6V38.9h1.6V47
		C71.7,47.3,71.6,47.9,71.7,48.6L71.7,48.6z"/>
	<path d="M85.4,43.2c0.5,0,0.9,0,1.3,0.1l-0.2,1.5c-0.4-0.1-0.8-0.1-1.2-0.1c-0.9,0-1.6,0.4-2.2,1.1s-0.9,1.6-0.9,2.6v5.7h-1.6V43.4
		h1.3l0.2,2h0.1c0.4-0.7,0.9-1.2,1.4-1.6S84.8,43.2,85.4,43.2z"/>
	<path d="M93.2,54.3c-1.6,0-2.8-0.5-3.7-1.4s-1.4-2.3-1.4-4c0-1.7,0.4-3.1,1.3-4.1s2-1.5,3.4-1.5c1.3,0,2.4,0.4,3.2,1.3
		s1.2,2,1.2,3.5v1h-7.4c0,1.3,0.4,2.2,1,2.9s1.5,1,2.5,1c1.2,0,2.3-0.2,3.4-0.7v1.4c-0.6,0.2-1.1,0.4-1.6,0.5S94,54.3,93.2,54.3z
		 M92.8,44.6c-0.9,0-1.5,0.3-2.1,0.8s-0.8,1.3-0.9,2.3h5.6c0-1-0.2-1.8-0.7-2.3S93.6,44.6,92.8,44.6z"/>
	<path d="M99.8,40.5c0-0.4,0.1-0.6,0.3-0.8s0.4-0.3,0.7-0.3c0.3,0,0.5,0.1,0.7,0.3s0.3,0.4,0.3,0.8s-0.1,0.6-0.3,0.8
		s-0.4,0.3-0.7,0.3c-0.3,0-0.5-0.1-0.7-0.3S99.8,40.9,99.8,40.5z M101.6,54.1h-1.6V43.4h1.6V54.1z"/>
	<path d="M111.9,51.2c0,1-0.4,1.8-1.1,2.3s-1.8,0.8-3.1,0.8c-1.4,0-2.5-0.2-3.3-0.7v-1.5c0.5,0.3,1.1,0.5,1.7,0.6s1.2,0.2,1.7,0.2
		c0.8,0,1.5-0.1,2-0.4c0.5-0.3,0.7-0.7,0.7-1.2c0-0.4-0.2-0.8-0.5-1.1s-1.1-0.6-2.1-1c-1-0.4-1.7-0.7-2.1-1s-0.7-0.6-0.9-0.9
		s-0.3-0.8-0.3-1.3c0-0.9,0.4-1.6,1.1-2.1s1.7-0.8,2.9-0.8c1.2,0,2.3,0.2,3.4,0.7l-0.6,1.3c-1.1-0.4-2-0.7-2.9-0.7
		c-0.8,0-1.3,0.1-1.7,0.4s-0.6,0.6-0.6,1c0,0.3,0.1,0.5,0.2,0.7s0.4,0.4,0.7,0.6s1,0.4,1.9,0.8c1.3,0.5,2.1,0.9,2.6,1.4
		C111.7,49.9,111.9,50.5,111.9,51.2z"/>
</g>
<g enable-background="new    ">
	<path d="M22.9,71.1v-2.4h5.2v2.4H22.9z"/>
	<path d="M39,64.1c0,0.9-0.3,1.7-0.8,2.3s-1.3,1.1-2.3,1.3v0.1c1.2,0.1,2,0.5,2.6,1s0.9,1.3,0.9,2.3c0,1.4-0.5,2.4-1.5,3.2
		s-2.4,1.1-4.3,1.1c-1.5,0-2.9-0.3-4.1-0.8v-2.6c0.6,0.3,1.2,0.5,1.8,0.7s1.3,0.3,2,0.3c1,0,1.7-0.2,2.2-0.5s0.7-0.9,0.7-1.6
		c0-0.7-0.3-1.1-0.8-1.4S34,69,32.8,69h-1.1v-2.3h1.1c1.1,0,1.9-0.1,2.4-0.4s0.8-0.8,0.8-1.5c0-1.1-0.7-1.6-2-1.6
		c-0.5,0-0.9,0.1-1.4,0.2s-1,0.4-1.6,0.8l-1.4-2.1c1.3-0.9,2.9-1.4,4.7-1.4c1.5,0,2.6,0.3,3.5,0.9S39,63.1,39,64.1z"/>
	<path d="M50.9,68.1c0,2.5-0.4,4.3-1.2,5.5s-2.1,1.8-3.8,1.8c-1.6,0-2.9-0.6-3.7-1.9s-1.3-3.1-1.3-5.5c0-2.5,0.4-4.4,1.2-5.6
		s2.1-1.8,3.8-1.8c1.6,0,2.9,0.6,3.7,1.9S50.9,65.7,50.9,68.1z M43.9,68.1c0,1.8,0.2,3,0.5,3.8s0.8,1.1,1.5,1.1
		c0.7,0,1.2-0.4,1.5-1.2s0.5-2,0.5-3.8c0-1.8-0.2-3-0.5-3.8s-0.8-1.1-1.5-1.1c-0.7,0-1.2,0.4-1.5,1.1S43.9,66.3,43.9,68.1z"/>
	<path d="M56.1,73.1c-0.3,1.3-0.9,2.9-1.7,4.7h-2.1c0.4-1.7,0.8-3.4,1-4.9h2.7L56.1,73.1z"/>
	<path d="M65.6,75.2h-3V67l0-1.4l0-1.5c-0.5,0.5-0.8,0.8-1,1L60,66.4l-1.5-1.8l4.6-3.7h2.5V75.2z"/>
	<path d="M76.2,65.2c0,1.5-0.3,2.6-0.9,3.4s-1.4,1.1-2.5,1.1c-1.1,0-1.9-0.4-2.5-1.2s-0.9-1.9-0.9-3.3c0-3,1.1-4.5,3.4-4.5
		c1.1,0,1.9,0.4,2.5,1.2S76.2,63.8,76.2,65.2z M71.9,65.2c0,0.8,0.1,1.4,0.2,1.9s0.4,0.6,0.7,0.6c0.6,0,0.9-0.8,0.9-2.5
		c0-1.6-0.3-2.4-0.9-2.4c-0.3,0-0.6,0.2-0.7,0.6S71.9,64.4,71.9,65.2z M82.9,60.9L75,75.2h-2.3l7.9-14.3H82.9z M86.2,70.9
		c0,1.5-0.3,2.6-0.9,3.4s-1.4,1.1-2.5,1.1c-1.1,0-1.9-0.4-2.5-1.2s-0.9-1.9-0.9-3.3c0-3,1.1-4.5,3.4-4.5c1.1,0,1.9,0.4,2.5,1.2
		S86.2,69.5,86.2,70.9z M81.9,70.9c0,0.8,0.1,1.4,0.2,1.9s0.4,0.6,0.7,0.6c0.6,0,0.9-0.8,0.9-2.5c0-1.6-0.3-2.4-0.9-2.4
		c-0.3,0-0.6,0.2-0.7,0.6S81.9,70.1,81.9,70.9z"/>
</g>
</svg>
