<?xml version="1.0" encoding="utf-8"?>
<!-- Generator: Adobe Illustrator 16.0.0, SVG Export Plug-In . SVG Version: 6.00 Build 0)  -->
<!DOCTYPE svg PUBLIC "-//W3C//DTD SVG 1.1//EN" "http://www.w3.org/Graphics/SVG/1.1/DTD/svg11.dtd">
<svg version="1.1" id="Ebene_1" xmlns="http://www.w3.org/2000/svg" xmlns:xlink="http://www.w3.org/1999/xlink" x="0px" y="0px"
	 width="215px" height="240px" viewBox="0 0 215 240" enable-background="new 0 0 215 240" xml:space="preserve">
<g opacity="0.8">
	<path fill="#D81D09" stroke="#000000" stroke-linecap="round" stroke-linejoin="round" d="M163.5,140.8l4.5-3l-1.5-6.1l3-1.5v-4.5
		l-3-3l4.5-3l1.5-4.5l-3-3l-4.5,1.5l3-6.1l-10.5-1.5l-3-6.1v-4.5l7.5-8.9l-13.7-15h-6.1l-4.3,5.9l-10.4,2.8v-6.1l-8-2.7h-5v6H112
		L99.8,60.7l-10.6,3l-7.6-4.6l-3,3l-7.6-1.5l-7.6,4.5l-6.1-1.6l-3,6h-2.9v3.2l-3,1.5l-9-1.5v5.8h3v4.8l-3,3v4.5l4.4,3l1.5-1.5
		l9.1,9.1l9.1,1.5v4.5l6.1,1.5l6.1,6.1l1.5,4.5l-7.6,7.6l-6.1-1.5l-1.5-4.5l-9.1,4.5l-9.1-4.5l-1.5,9.1l9.1,3l-1.5,4.5l6.1,7.6
		l1.5,7.6l-3,3l1.5,9.1l16.7,1.8l1.5-4.3h3l6.1,2.8l1.5,2.9l-3,1.5l-4.5,15.2l1.5,4.6h7.6l-1.5-4.7l9.1-7.6l6.1,3l3.1-4.6l-4.5-6.1
		v-6.1l7-4.5v-4.5l13.8-3.2l-2.8-10.8h-3v-2.7l3-1.5l10.6-1.5l15.1,6.1l3-3l1.5,7.6l12.1-1.5l3,4.5l4.5,1.5l6.1-7.6l-4.5,1.5
		L163.5,140.8z M125.6,121.1l-6.1,1.6l-6.1,10.7h-3l-4.5-9.2l-12.1,1.4l-6.1-4.6l7.6-3l-6.1-9.1l6.1-7.6l3,1.5l4.6-3l10.6,4.5v6h4.5
		l3,3l7.6-1.5l4.5,3L125.6,121.1z"/>
	<polygon fill="#DFEDF7" stroke="#000000" stroke-linecap="round" stroke-linejoin="round" points="121.1,113.5 118,110.5 
		113.5,110.5 113.5,104.5 102.9,99.9 98.3,102.9 95.3,101.4 89.2,109 95.3,118.1 87.7,121.1 93.8,125.7 105.9,124.3 110.4,133.5 
		113.5,133.5 119.5,122.8 125.6,121.2 133.2,115.1 128.6,112 	"/>
</g>
</svg>
