<?xml version="1.0" encoding="utf-8"?>
<!-- Generator: Adobe Illustrator 16.0.0, SVG Export Plug-In . SVG Version: 6.00 Build 0)  -->
<!DOCTYPE svg PUBLIC "-//W3C//DTD SVG 1.1//EN" "http://www.w3.org/Graphics/SVG/1.1/DTD/svg11.dtd">
<svg version="1.1" id="Ebene_1" xmlns="http://www.w3.org/2000/svg" xmlns:xlink="http://www.w3.org/1999/xlink" x="0px" y="0px"
	 width="240px" height="240px" viewBox="0 0 240 240" enable-background="new 0 0 240 240" xml:space="preserve">
<g opacity="0.8">
	<path fill="#D81D09" stroke="#000000" stroke-linecap="round" stroke-linejoin="round" d="M210.3,147.1l7.2-4.8l-2.4-9.8l4.8-2.4
		v-7.2l-4.8-4.8l7.2-4.8l2.4-7.2l-4.8-4.8l-7.2,2.4l4.8-9.8l-16.8-2.4l-4.8-9.8v-7.2l12-14.3l-22-24.1h-9.8l-6.9,9.5L152.5,50v-9.8
		l-12.8-4.3h-8v9.6h-4l-19.6-27l-17,4.8L78.9,16l-4.8,4.8l-12.2-2.4l-12.2,7.2l-9.8-2.6l-4.8,9.6h-4.7v5.1l-4.8,2.4l-14.4-2.4v9.3
		H16v7.7l-4.8,4.8v7.2l7.1,4.8l2.4-2.4l14.6,14.6l14.6,2.4v7.2l9.8,2.4l9.8,9.8l2.4,7.2l-12.2,12.2l-9.8-2.4l-2.4-7.2l-14.6,7.2
		l-14.6-7.2l-2.4,14.6l14.6,4.8l-2.4,7.2l9.8,12.2l2.4,12.2l-4.8,4.8l2.4,14.6l26.8,2.9l2.4-6.9h4.8l9.8,4.5l2.4,4.7l-4.8,2.4
		L72,217.9l2.4,7.4h12.2l-2.4-7.5l14.6-12.2l9.8,4.8l5-7.4l-7.2-9.8v-9.8l11.2-7.2v-7.2l22.1-5.1l-4.5-17.3h-4.8v-4.3l4.8-2.4
		l17-2.4l24.2,9.8l4.8-4.8l2.4,12.2l19.4-2.4l4.8,7.2l7.2,2.4l9.8-12.2l-7.2,2.4L210.3,147.1z M149.5,115.5l-9.8,2.6l-9.8,17.2h-4.8
		l-7.2-14.8l-19.4,2.2l-9.8-7.4l12.2-4.8l-9.8-14.6l9.8-12.2l4.8,2.4l7.4-4.8l17,7.2v9.6h7.2l4.8,4.8l12.2-2.4l7.2,4.8L149.5,115.5z
		"/>
	<polygon fill="#DFEDF7" stroke="#000000" stroke-linecap="round" stroke-linejoin="round" points="142.2,103.3 137.3,98.5 
		130,98.5 130,88.9 113,81.5 105.7,86.3 100.8,83.9 91.1,96.1 100.8,110.7 88.7,115.5 98.4,122.9 117.8,120.6 125.1,135.4 
		130,135.4 139.7,118.2 149.5,115.7 161.6,105.9 154.3,100.9 	"/>
</g>
<text transform="matrix(1 0 0 1 71.5 142.7998)" font-family="'OpenSans'" font-size="20">Stadt</text>
<text transform="matrix(1 0 0 1 71.5 163.9199)" font-family="'OpenSans-Bold'" font-size="20">0%</text>
<text transform="matrix(1 0 0 1 32.3003 54.1006)" font-family="'OpenSans'" font-size="20">Landkreis</text>
<text transform="matrix(1 0 0 1 32.3003 75.2207)" font-family="'OpenSans-Bold'" font-size="20">-30,1%</text>
</svg>
