<?xml version="1.0" encoding="utf-8"?>
<!-- Generator: Adobe Illustrator 16.0.0, SVG Export Plug-In . SVG Version: 6.00 Build 0)  -->
<!DOCTYPE svg PUBLIC "-//W3C//DTD SVG 1.1//EN" "http://www.w3.org/Graphics/SVG/1.1/DTD/svg11.dtd">
<svg version="1.1" id="Ebene_1" xmlns="http://www.w3.org/2000/svg" xmlns:xlink="http://www.w3.org/1999/xlink" x="0px" y="0px"
	 width="240px" height="240px" viewBox="0 0 240 240" enable-background="new 0 0 240 240" xml:space="preserve">
<g opacity="0.8">
	<path fill="#FFC166" stroke="#000000" stroke-linecap="round" stroke-linejoin="round" d="M215.5,123.5l7.1-5.4l-3.5-5.4l-5.3-1.8
		l-12.4,1.8L198,118l-10.5,3.5v-7.1l-9.1-8.9h-7.1l3.5-8.9l-1.8-3.5l5.3-1.8l-3.5-12.4l5.3-5.3l-1.9-3.5l6.9-1.8V63l-3.4-1.8
		l3.6-7.1L171.1,49l-7-15.8l-10.6-10.5H150l-7.2,8.8l-12.5-1.9v-3.5l-17.6-12.4L89.8,8.4l-3.5,5.1l-1.8,3.4H59.6L49,27.7l-5.3,3.6
		l-1.8-1.8l-5.3,7.1l-7,1.8V42l-5.8,1.8v15.9l-5,5.3l3.7,1.8L26.3,79v14.1l5,7.1l8.9,3.5l5.3-1.8l1.8,10.6l3.5,3.5l-3.6,1.8v10.6
		l3.6,5.3l-5.3,7.1l5.4,3.5l10.6-1.8L58,160.4l8.9,19.5l5.3,1.8l1.8-3.5l8.9-3.5l14.1,1.8l3.5,3.5l1.8-3.5l7.1,1.8l12.4,19.5l-2,5.3
		l14,10.6v8.9l5.5,3.5l17.9-3.5v7.1l8.9-12.4l5.3,5.3l3.5-1.8v-5.3l7-1.8v-3.5l10.8-1.8l1.6-7.1l5.1-5.3v-14.4h12.9l3.5-7l-5.3-28.3
		l5.3-3.5l3.5,1.8l3.5-5.3v-6.8h-3.5L215.5,123.5z M148.1,99.7h-3.5l-1.8,5.8h-3.4v7.1l-10.8,3.5l3.5,8.9l-3.5,3.4l-1.8-5.4h-5.3
		l-3.5,7h-3.5l-7.1,3.6l-3.5,1.9l-6.9-5.3l-29.9,7.1v-8.9l30-10.4l1.8-12.4l3.5-1.8l10.6,12.4l5.3-7L139.6,95h10.6L148.1,99.7z"/>
	<polygon fill="#A7C9EA" stroke="#000000" stroke-linecap="round" stroke-linejoin="round" points="118.1,109.2 112.7,116.2 
		102.2,103.8 98.5,105.6 96.9,118 67,128.6 67,137.5 96.9,130.4 103.9,135.7 107.4,133.7 114.5,130.1 118.1,130.1 121.6,123.1 
		126.9,123.1 128.7,128.5 132.2,125 128.7,116.2 139.5,112.7 139.5,105.6 142.8,105.6 144.6,99.7 148.1,99.7 149.9,95 139.3,95 	"/>
</g>
<g enable-background="new    ">
	<path d="M133.5,146c0,1.3-0.5,2.2-1.4,2.9s-2.1,1.1-3.7,1.1c-1.7,0-3-0.2-3.9-0.7v-1.6c0.6,0.2,1.2,0.4,1.9,0.6s1.4,0.2,2.1,0.2
		c1.1,0,1.9-0.2,2.5-0.6s0.8-1,0.8-1.8c0-0.5-0.1-0.9-0.3-1.2s-0.5-0.6-1-0.9s-1.2-0.6-2.1-0.9c-1.3-0.5-2.3-1-2.8-1.7
		s-0.9-1.5-0.9-2.5c0-1.1,0.4-2,1.2-2.6s1.9-1,3.3-1c1.4,0,2.7,0.3,3.9,0.8l-0.5,1.4c-1.2-0.5-2.3-0.7-3.4-0.7
		c-0.9,0-1.6,0.2-2.1,0.6s-0.7,0.9-0.7,1.6c0,0.5,0.1,0.9,0.3,1.2s0.5,0.6,0.9,0.9s1.1,0.6,2,0.9c1.5,0.5,2.5,1.1,3.1,1.7
		S133.5,145,133.5,146z"/>
	<path d="M139.7,148.7c0.3,0,0.6,0,0.8-0.1s0.5-0.1,0.6-0.1v1.2c-0.2,0.1-0.4,0.2-0.8,0.2s-0.6,0.1-0.9,0.1c-2.1,0-3.1-1.1-3.1-3.3
		v-6.4h-1.5v-0.8l1.5-0.7l0.7-2.3h0.9v2.5h3.1v1.3h-3.1v6.3c0,0.6,0.2,1.1,0.5,1.5S139.1,148.7,139.7,148.7z"/>
	<path d="M149.8,149.8l-0.3-1.5h-0.1c-0.5,0.7-1.1,1.1-1.6,1.4s-1.2,0.4-2,0.4c-1.1,0-1.9-0.3-2.5-0.8s-0.9-1.3-0.9-2.3
		c0-2.2,1.7-3.3,5.2-3.4l1.8-0.1v-0.7c0-0.8-0.2-1.5-0.5-1.9s-0.9-0.6-1.7-0.6c-0.9,0-1.9,0.3-3,0.8l-0.5-1.2
		c0.5-0.3,1.1-0.5,1.7-0.7s1.3-0.2,1.9-0.2c1.3,0,2.2,0.3,2.8,0.8s0.9,1.5,0.9,2.7v7.3H149.8z M146.2,148.7c1,0,1.8-0.3,2.4-0.8
		s0.9-1.3,0.9-2.3v-1l-1.6,0.1c-1.3,0-2.2,0.2-2.8,0.6s-0.9,0.9-0.9,1.7c0,0.6,0.2,1,0.5,1.3S145.5,148.7,146.2,148.7z"/>
	<path d="M161.7,148.4L161.7,148.4c-0.8,1.1-2,1.6-3.4,1.6c-1.4,0-2.5-0.5-3.3-1.4s-1.2-2.3-1.2-4.1s0.4-3.1,1.2-4.1
		s1.9-1.5,3.3-1.5c1.5,0,2.6,0.5,3.3,1.6h0.1l-0.1-0.8l0-0.8v-4.4h1.6v15.2h-1.3L161.7,148.4z M158.4,148.6c1.1,0,1.9-0.3,2.4-0.9
		s0.7-1.6,0.7-2.9v-0.3c0-1.5-0.3-2.6-0.8-3.2s-1.3-1-2.4-1c-1,0-1.7,0.4-2.2,1.1s-0.8,1.8-0.8,3.1c0,1.4,0.2,2.4,0.8,3.1
		S157.5,148.6,158.4,148.6z"/>
	<path d="M170.1,148.7c0.3,0,0.6,0,0.8-0.1s0.5-0.1,0.6-0.1v1.2c-0.2,0.1-0.4,0.2-0.8,0.2s-0.6,0.1-0.9,0.1c-2.1,0-3.1-1.1-3.1-3.3
		v-6.4h-1.5v-0.8l1.5-0.7l0.7-2.3h0.9v2.5h3.1v1.3h-3.1v6.3c0,0.6,0.2,1.1,0.5,1.5S169.6,148.7,170.1,148.7z"/>
</g>
<g enable-background="new    ">
	<path d="M128.1,164.9h-3.8v-2.1h3.8V159h2.1v3.8h3.8v2.1h-3.8v3.8h-2.1V164.9z"/>
	<path d="M143.2,170.9h-3v-8.3l0-1.4l0-1.5c-0.5,0.5-0.8,0.8-1,1l-1.6,1.3l-1.5-1.8l4.6-3.7h2.5V170.9z"/>
	<path d="M152.1,156.4c1.4,0,2.5,0.3,3.3,0.9s1.3,1.5,1.3,2.5c0,0.7-0.2,1.4-0.6,1.9s-1.1,1.1-2,1.5c1.1,0.6,1.8,1.2,2.3,1.8
		s0.7,1.3,0.7,2c0,1.2-0.5,2.1-1.4,2.8s-2.1,1.1-3.6,1.1c-1.6,0-2.8-0.3-3.7-1s-1.3-1.6-1.3-2.8c0-0.8,0.2-1.5,0.6-2.2
		s1.1-1.2,2.1-1.7c-0.8-0.5-1.4-1.1-1.8-1.7s-0.5-1.2-0.5-1.9c0-1,0.4-1.8,1.3-2.5S150.7,156.4,152.1,156.4z M149.8,167.1
		c0,0.6,0.2,1,0.6,1.3s0.9,0.5,1.6,0.5c0.7,0,1.3-0.2,1.7-0.5s0.6-0.7,0.6-1.3c0-0.4-0.2-0.8-0.6-1.2s-1-0.8-1.8-1.2
		C150.5,165.3,149.8,166.1,149.8,167.1z M152,158.6c-0.5,0-0.9,0.1-1.2,0.4s-0.5,0.6-0.5,1.1c0,0.4,0.1,0.7,0.4,1s0.7,0.6,1.4,1
		c0.6-0.3,1.1-0.6,1.3-0.9s0.4-0.7,0.4-1.1c0-0.4-0.2-0.8-0.5-1.1S152.5,158.6,152,158.6z"/>
	<path d="M162.2,168.8c-0.3,1.3-0.9,2.9-1.7,4.7h-2.1c0.4-1.7,0.8-3.4,1-4.9h2.7L162.2,168.8z"/>
	<path d="M174.3,170.9h-10v-2.1l3.6-3.6c1.1-1.1,1.8-1.8,2.1-2.3s0.6-0.8,0.7-1.2s0.2-0.7,0.2-1.1c0-0.6-0.2-1-0.5-1.3
		s-0.7-0.4-1.3-0.4c-0.6,0-1.1,0.1-1.6,0.4s-1.1,0.6-1.6,1.1l-1.6-1.9c0.7-0.6,1.3-1,1.7-1.3s1-0.4,1.5-0.6s1.2-0.2,1.8-0.2
		c0.9,0,1.7,0.2,2.4,0.5s1.2,0.8,1.6,1.4s0.6,1.3,0.6,2c0,0.7-0.1,1.3-0.3,1.9s-0.6,1.2-1.1,1.8s-1.3,1.5-2.6,2.6l-1.8,1.7v0.1h6.2
		V170.9z"/>
	<path d="M182.4,160.9c0,1.5-0.3,2.6-0.9,3.4s-1.4,1.1-2.5,1.1c-1.1,0-1.9-0.4-2.5-1.2s-0.9-1.9-0.9-3.3c0-3,1.1-4.5,3.4-4.5
		c1.1,0,1.9,0.4,2.5,1.2S182.4,159.4,182.4,160.9z M178,160.9c0,0.8,0.1,1.4,0.2,1.9s0.4,0.6,0.7,0.6c0.6,0,0.9-0.8,0.9-2.5
		c0-1.6-0.3-2.4-0.9-2.4c-0.3,0-0.6,0.2-0.7,0.6S178,160.1,178,160.9z M189.1,156.6l-7.9,14.3h-2.3l7.9-14.3H189.1z M192.4,166.6
		c0,1.5-0.3,2.6-0.9,3.4s-1.4,1.1-2.5,1.1c-1.1,0-1.9-0.4-2.5-1.2s-0.9-1.9-0.9-3.3c0-3,1.1-4.5,3.4-4.5c1.1,0,1.9,0.4,2.5,1.2
		S192.4,165.2,192.4,166.6z M188,166.6c0,0.8,0.1,1.4,0.2,1.9s0.4,0.6,0.7,0.6c0.6,0,0.9-0.8,0.9-2.5c0-1.6-0.3-2.4-0.9-2.4
		c-0.3,0-0.6,0.2-0.7,0.6S188,165.8,188,166.6z"/>
</g>
<g enable-background="new    ">
	<path d="M44.5,59.4V45.1h1.7v12.8h6.3v1.5H44.5z"/>
	<path d="M61.2,59.4l-0.3-1.5h-0.1c-0.5,0.7-1.1,1.1-1.6,1.4s-1.2,0.4-2,0.4c-1.1,0-1.9-0.3-2.5-0.8s-0.9-1.3-0.9-2.3
		c0-2.2,1.7-3.3,5.2-3.4l1.8-0.1v-0.7c0-0.8-0.2-1.5-0.5-1.9s-0.9-0.6-1.7-0.6c-0.9,0-1.9,0.3-3,0.8L55,49.4
		c0.5-0.3,1.1-0.5,1.7-0.7s1.3-0.2,1.9-0.2c1.3,0,2.2,0.3,2.8,0.8s0.9,1.5,0.9,2.7v7.3H61.2z M57.5,58.3c1,0,1.8-0.3,2.4-0.8
		s0.9-1.3,0.9-2.3v-1l-1.6,0.1c-1.3,0-2.2,0.2-2.8,0.6s-0.9,0.9-0.9,1.7c0,0.6,0.2,1,0.5,1.3S56.9,58.3,57.5,58.3z"/>
	<path d="M73,59.4v-6.9c0-0.9-0.2-1.5-0.6-2s-1-0.6-1.9-0.6c-1.1,0-1.9,0.3-2.5,0.9s-0.8,1.6-0.8,3v5.6h-1.6V48.7H67l0.3,1.5h0.1
		c0.3-0.5,0.8-0.9,1.4-1.2s1.3-0.4,2-0.4c1.3,0,2.3,0.3,2.9,0.9s1,1.6,1,3v7H73z"/>
	<path d="M85.3,58L85.3,58c-0.8,1.1-2,1.6-3.4,1.6c-1.4,0-2.5-0.5-3.3-1.4s-1.2-2.3-1.2-4.1s0.4-3.1,1.2-4.1s1.9-1.5,3.3-1.5
		c1.5,0,2.6,0.5,3.3,1.6h0.1l-0.1-0.8l0-0.8v-4.4h1.6v15.2h-1.3L85.3,58z M82,58.2c1.1,0,1.9-0.3,2.4-0.9s0.7-1.6,0.7-2.9v-0.3
		c0-1.5-0.3-2.6-0.8-3.2s-1.3-1-2.4-1c-1,0-1.7,0.4-2.2,1.1s-0.8,1.8-0.8,3.1c0,1.4,0.3,2.4,0.8,3.1S81.1,58.2,82,58.2z"/>
	<path d="M91.9,53.9c0.3-0.4,0.7-0.9,1.3-1.6l3.5-3.7h1.9l-4.3,4.6l4.6,6.1h-2l-3.8-5.1l-1.2,1.1v4h-1.6V44.2h1.6v8.1
		C91.9,52.6,91.8,53.2,91.9,53.9L91.9,53.9z"/>
	<path d="M105.6,48.5c0.5,0,0.9,0,1.3,0.1l-0.2,1.5c-0.4-0.1-0.8-0.1-1.2-0.1c-0.9,0-1.6,0.4-2.2,1.1s-0.9,1.6-0.9,2.6v5.7h-1.6
		V48.7h1.3l0.2,2h0.1c0.4-0.7,0.9-1.2,1.4-1.6S105,48.5,105.6,48.5z"/>
	<path d="M113.4,59.6c-1.6,0-2.8-0.5-3.7-1.4s-1.4-2.3-1.4-4c0-1.7,0.4-3.1,1.3-4.1s2-1.5,3.4-1.5c1.3,0,2.4,0.4,3.2,1.3
		s1.2,2,1.2,3.5v1H110c0,1.3,0.4,2.2,1,2.9s1.5,1,2.5,1c1.2,0,2.3-0.2,3.4-0.7v1.4c-0.6,0.2-1.1,0.4-1.6,0.5S114.2,59.6,113.4,59.6z
		 M113,49.9c-0.9,0-1.5,0.3-2.1,0.8S110.1,52,110,53h5.6c0-1-0.2-1.8-0.7-2.3S113.8,49.9,113,49.9z"/>
	<path d="M120,45.8c0-0.4,0.1-0.6,0.3-0.8s0.4-0.3,0.7-0.3c0.3,0,0.5,0.1,0.7,0.3s0.3,0.4,0.3,0.8s-0.1,0.6-0.3,0.8
		s-0.4,0.3-0.7,0.3c-0.3,0-0.5-0.1-0.7-0.3S120,46.2,120,45.8z M121.8,59.4h-1.6V48.7h1.6V59.4z"/>
	<path d="M132.1,56.5c0,1-0.4,1.8-1.1,2.3s-1.8,0.8-3.1,0.8c-1.4,0-2.5-0.2-3.3-0.7v-1.5c0.5,0.3,1.1,0.5,1.7,0.6s1.2,0.2,1.7,0.2
		c0.8,0,1.5-0.1,2-0.4s0.7-0.7,0.7-1.2c0-0.4-0.2-0.8-0.5-1.1s-1.1-0.6-2.1-1c-1-0.4-1.7-0.7-2.1-1s-0.7-0.6-0.9-0.9
		s-0.3-0.8-0.3-1.3c0-0.9,0.4-1.6,1.1-2.1s1.7-0.8,2.9-0.8c1.2,0,2.3,0.2,3.4,0.7l-0.6,1.3c-1.1-0.4-2-0.7-2.9-0.7
		c-0.8,0-1.3,0.1-1.7,0.4s-0.6,0.6-0.6,1c0,0.3,0.1,0.5,0.2,0.7s0.4,0.4,0.7,0.6s1,0.4,1.9,0.8c1.3,0.5,2.1,0.9,2.6,1.4
		S132.1,55.8,132.1,56.5z"/>
</g>
<g enable-background="new    ">
	<path d="M43.1,76.4v-2.4h5.2v2.4H43.1z"/>
	<path d="M57.2,80.5h-3v-8.3l0-1.4l0-1.5c-0.5,0.5-0.8,0.8-1,1l-1.6,1.3l-1.5-1.8l4.6-3.7h2.5V80.5z"/>
	<path d="M71.1,80.5h-10v-2.1l3.6-3.6c1.1-1.1,1.8-1.8,2.1-2.3s0.6-0.8,0.7-1.2s0.2-0.7,0.2-1.1c0-0.6-0.2-1-0.5-1.3
		s-0.7-0.4-1.3-0.4c-0.6,0-1.1,0.1-1.6,0.4s-1.1,0.6-1.6,1.1l-1.6-1.9c0.7-0.6,1.3-1,1.7-1.3s1-0.4,1.5-0.6s1.2-0.2,1.8-0.2
		c0.9,0,1.7,0.2,2.4,0.5s1.2,0.8,1.6,1.4s0.6,1.3,0.6,2c0,0.7-0.1,1.3-0.3,1.9s-0.6,1.2-1.1,1.8S68,75,66.7,76.1l-1.8,1.7V78h6.2
		V80.5z"/>
	<path d="M76.2,78.4c-0.3,1.3-0.9,2.9-1.7,4.7h-2.1c0.4-1.7,0.8-3.4,1-4.9h2.7L76.2,78.4z"/>
	<path d="M78.3,74.4c0-2.8,0.6-4.9,1.8-6.3s3-2.1,5.4-2.1c0.8,0,1.5,0,1.9,0.1v2.4c-0.6-0.1-1.2-0.2-1.7-0.2c-1,0-1.9,0.2-2.5,0.5
		s-1.1,0.8-1.5,1.4s-0.5,1.5-0.6,2.6h0.1c0.6-1.1,1.7-1.7,3.1-1.7c1.3,0,2.3,0.4,3,1.2s1.1,1.9,1.1,3.3c0,1.5-0.4,2.7-1.3,3.6
		s-2.1,1.3-3.6,1.3c-1.1,0-2-0.2-2.8-0.7s-1.4-1.2-1.8-2.1S78.3,75.8,78.3,74.4z M83.4,78.3c0.6,0,1.1-0.2,1.5-0.6s0.5-1,0.5-1.9
		c0-0.7-0.2-1.2-0.5-1.6s-0.8-0.6-1.5-0.6c-0.6,0-1.1,0.2-1.6,0.6s-0.6,0.9-0.6,1.4c0,0.8,0.2,1.4,0.6,2S82.8,78.3,83.4,78.3z"/>
	<path d="M96.4,70.5c0,1.5-0.3,2.6-0.9,3.4S94.1,75,93,75c-1.1,0-1.9-0.4-2.5-1.2s-0.9-1.9-0.9-3.3c0-3,1.1-4.5,3.4-4.5
		c1.1,0,1.9,0.4,2.5,1.2S96.4,69,96.4,70.5z M92.1,70.5c0,0.8,0.1,1.4,0.2,1.9S92.7,73,93,73c0.6,0,0.9-0.8,0.9-2.5
		c0-1.6-0.3-2.4-0.9-2.4c-0.3,0-0.6,0.2-0.7,0.6S92.1,69.7,92.1,70.5z M103.1,66.2l-7.9,14.3h-2.3l7.9-14.3H103.1z M106.4,76.2
		c0,1.5-0.3,2.6-0.9,3.4s-1.4,1.1-2.5,1.1c-1.1,0-1.9-0.4-2.5-1.2s-0.9-1.9-0.9-3.3c0-3,1.1-4.5,3.4-4.5c1.1,0,1.9,0.4,2.5,1.2
		S106.4,74.8,106.4,76.2z M102.1,76.2c0,0.8,0.1,1.4,0.2,1.9s0.4,0.6,0.7,0.6c0.6,0,0.9-0.8,0.9-2.5c0-1.6-0.3-2.4-0.9-2.4
		c-0.3,0-0.6,0.2-0.7,0.6S102.1,75.4,102.1,76.2z"/>
</g>
</svg>
