<?xml version="1.0" encoding="utf-8"?>
<!-- Generator: Adobe Illustrator 16.0.0, SVG Export Plug-In . SVG Version: 6.00 Build 0)  -->
<!DOCTYPE svg PUBLIC "-//W3C//DTD SVG 1.1//EN" "http://www.w3.org/Graphics/SVG/1.1/DTD/svg11.dtd">
<svg version="1.1" id="Ebene_1" xmlns="http://www.w3.org/2000/svg" xmlns:xlink="http://www.w3.org/1999/xlink" x="0px" y="0px"
	 width="215px" height="240px" viewBox="0 0 215 240" enable-background="new 0 0 215 240" xml:space="preserve">
<g opacity="0.8">
	<path fill="#FFC166" stroke="#000000" stroke-linecap="round" stroke-linejoin="round" d="M189.5,125.8l6.1-4.6l-3-4.6l-4.5-1.5
		l-10.6,1.5l-2.9,4.5l-9,3v-6.1l-7.8-7.6h-6.1l3-7.6l-1.5-3l4.5-1.5l-3-10.6l4.5-4.5l-1.6-3l5.9-1.5v-4.5l-2.9-1.5l3.1-6.1
		l-12.1-4.5l-6-13.5l-9.1-9h-3l-6.2,7.5l-10.7-1.6v-3l-15-10.6l-19.6-4.5l-3,4.4l-1.5,2.9H56.2l-9.1,9.2l-4.5,3.1l-1.5-1.5l-4.5,6.1
		l-6,1.5v3l-5,1.5v13.6l-4.3,4.5l3.2,1.5l3.2,10.6v12.1L32,106l7.6,3l4.5-1.5l1.5,9.1l3,3l-3.1,1.5v9.1l3.1,4.5l-4.5,6.1l4.6,3
		l9.1-1.5l-3,15.1l7.6,16.7l4.5,1.5l1.5-3l7.6-3l12.1,1.5l3,3l1.5-3l6.1,1.5l10.6,16.7l-1.7,4.5l12,9.1v7.6l4.7,3l15.3-3v6.1
		l7.6-10.6l4.5,4.5l3-1.5v-4.5l6-1.5v-3l9.2-1.5l1.4-6.1l4.4-4.5v-12.3h11l3-6l-4.5-24.2l4.5-3l3,1.5l3-4.5v-5.8h-3L189.5,125.8z
		 M131.9,105.5h-3l-1.5,5h-2.9v6.1l-9.2,3l3,7.6l-3,2.9l-1.5-4.6h-4.5l-3,6h-3l-6.1,3.1l-3,1.6l-5.9-4.5l-25.6,6.1v-7.6l25.6-9.1
		l1.5-10.6l3-1.5l9.1,10.6l4.5-6l18.2-12.1h9.1L131.9,105.5z"/>
	<polygon fill="#A7C9EA" stroke="#000000" stroke-linecap="round" stroke-linejoin="round" points="106.2,113.6 101.6,119.6 
		92.6,109 89.5,110.5 88.1,121.1 62.5,130.2 62.5,137.8 88.1,131.7 94.1,136.3 97.1,134.6 103.2,131.5 106.2,131.5 109.2,125.5 
		113.8,125.5 115.3,130.1 118.3,127.1 115.3,119.6 124.5,116.6 124.5,110.5 127.4,110.5 128.9,105.5 131.9,105.5 133.4,101.5 
		124.4,101.5 	"/>
</g>
</svg>
