<?xml version="1.0" encoding="utf-8"?>
<!-- Generator: Adobe Illustrator 16.0.0, SVG Export Plug-In . SVG Version: 6.00 Build 0)  -->
<!DOCTYPE svg PUBLIC "-//W3C//DTD SVG 1.1//EN" "http://www.w3.org/Graphics/SVG/1.1/DTD/svg11.dtd">
<svg version="1.1" id="Ebene_1" xmlns="http://www.w3.org/2000/svg" xmlns:xlink="http://www.w3.org/1999/xlink" x="0px" y="0px"
	 width="240px" height="240px" viewBox="0 0 240 240" enable-background="new 0 0 240 240" xml:space="preserve">
<g opacity="0.8">
	<path fill="#FFC166" stroke="#000000" stroke-linecap="round" stroke-linejoin="round" d="M211.3,122.9l7.1-5.3l-3.5-5.3l-5.2-1.7
		l-12.3,1.7l-3.4,5.2l-10.4,3.5v-7.1l-9-8.8h-7.1l3.5-8.8l-1.7-3.5l5.2-1.7L171,78.8l5.2-5.2l-1.9-3.5l6.8-1.7v-5.2l-3.4-1.7
		l3.6-7.1l-14-5.2l-6.9-15.6L150,23.1h-3.5l-7.2,8.7L126.9,30v-3.5l-17.4-12.3L86.9,9l-3.5,5.1l-1.7,3.4H57L46.5,28.1l-5.2,3.6
		L39.5,30L34.3,37l-6.9,1.7v3.5L21.6,44v15.7l-5,5.2l3.7,1.7L24,78.9v14l5,7.1l8.8,3.5l5.2-1.7l1.7,10.5l3.5,3.5l-3.6,1.7V128
		l3.6,5.2l-5.2,7.1l5.3,3.5l10.5-1.7l-3.5,17.5l8.8,19.3l5.2,1.7l1.7-3.5l8.8-3.5l14,1.7l3.5,3.5l1.7-3.5l7.1,1.7l12.3,19.3l-2,5.2
		l13.9,10.5v8.8l5.4,3.5l17.7-3.5v7.1l8.8-12.3l5.2,5.2l3.5-1.7V214l6.9-1.7v-3.5l10.6-1.7l1.6-7.1l5.1-5.2v-14.2h12.7l3.5-6.9
		l-5.2-28l5.2-3.5l3.5,1.7l3.5-5.2v-6.7H215L211.3,122.9z M144.6,99.4h-3.5l-1.7,5.8h-3.4v7.1l-10.6,3.5l3.5,8.8l-3.5,3.4l-1.7-5.3
		h-5.2l-3.5,6.9h-3.5l-7.1,3.6l-3.5,1.9l-6.8-5.2l-29.6,7.1V128l29.6-10.5l1.7-12.3l3.5-1.7l10.5,12.3l5.2-6.9l21.1-14h10.5
		L144.6,99.4z"/>
	<polygon fill="#A7C9EA" stroke="#000000" stroke-linecap="round" stroke-linejoin="round" points="114.9,108.8 109.6,115.7 
		99.2,103.5 95.6,105.2 93.9,117.5 64.3,128 64.3,136.8 93.9,129.7 100.9,135.1 104.4,133.1 111.4,129.5 114.9,129.5 118.4,122.6 
		123.7,122.6 125.4,127.9 128.9,124.4 125.4,115.7 136.1,112.2 136.1,105.2 139.4,105.2 141.2,99.4 144.6,99.4 146.4,94.8 136,94.8 
			"/>
</g>
</svg>
