<?xml version="1.0" encoding="utf-8"?>
<!-- Generator: Adobe Illustrator 16.0.0, SVG Export Plug-In . SVG Version: 6.00 Build 0)  -->
<!DOCTYPE svg PUBLIC "-//W3C//DTD SVG 1.1//EN" "http://www.w3.org/Graphics/SVG/1.1/DTD/svg11.dtd">
<svg version="1.1" id="Ebene_1" xmlns="http://www.w3.org/2000/svg" xmlns:xlink="http://www.w3.org/1999/xlink" x="0px" y="0px"
	 width="145px" height="145px" viewBox="0 0 145 145" enable-background="new 0 0 145 145" xml:space="preserve">
<g>
	<g>
		<polygon fill="#080908" points="76.7,132.9 71.2,137.9 71.2,139.4 76.7,134.4 		"/>
		<path fill="#080908" d="M42.3,141.3v-5.7c0-1.8-0.8-2.3-2.6-2.3c-1.7,0-2.6,1-2.6,1c0.1,0.4,0.1,0.8,0.1,1.4v5.7H36v-5.7
			c0-1.8-0.8-2.3-2.5-2.3s-2.5,0.5-2.5,2.3v5.7h-1.2v-5.7c0-2.9,1.9-3.601,3.7-3.601c1.1,0,2.3,0.4,3.1,1.4c0.8-0.9,2-1.4,3-1.4
			c1.9,0,3.7,0.7,3.7,3.601v5.7h-1V141.3z"/>
		<path fill="#080908" d="M79.9,132v5.7c0,1.8,0.8,2.3,2.6,2.3c1.7,0,2.6-1,2.6-1c-0.1-0.4-0.1-0.8-0.1-1.4V132h1.2v5.7
			c0,1.8,0.8,2.3,2.5,2.3s2.5-0.5,2.5-2.3V132h1.2v5.7c0,2.899-1.9,3.6-3.7,3.6c-1.101,0-2.3-0.399-3.101-1.399
			c-0.8,0.899-2,1.399-3.1,1.399c-1.9,0-3.7-0.7-3.7-3.6V132H79.9z"/>
		<path fill="#080908" d="M53.6,139.7c-0.7,1.7-2.5,1.899-4.1,1.899c-2.1,0-4.3-0.8-4.3-3.6v-2.3c0-2.8,2.2-3.601,4.3-3.601
			s4.4,0.7,4.4,3.601v1.7h-7.4v0.8c0,1.399,1,2.3,3,2.3c1.3,0,2.1-0.2,2.6-0.7c0.2-0.2,0.4-0.3,0.6-0.3c0.1,0,0.2,0,0.3,0.1
			L53.6,139.7z M46.5,136.2h6.1v-0.8c0-1.601-0.9-2.2-3.1-2.2s-3,0.6-3,2.2V136.2z"/>
		<path fill="#080908" d="M57,129.5v3.5c0.6-1,2.4-1,2.8-1c2.2,0,4.4,0.6,4.4,3.6v5.7h-1.3v-5.7c0-1.699-0.9-2.3-3.1-2.3H57v8h-1.3
			v-12.8L57,129.5z"/>
		<path fill="#080908" d="M102.5,139.7c-0.7,1.7-2.5,1.899-4.1,1.899c-2.101,0-4.301-0.8-4.301-3.6v-2.3
			c0-2.8,2.2-3.601,4.301-3.601c2.1,0,4.399,0.7,4.399,3.601v1.7H95.4v0.8c0,1.399,1,2.3,3,2.3c1.3,0,2.1-0.2,2.6-0.7
			c0.2-0.2,0.4-0.3,0.6-0.3c0.101,0,0.2,0,0.301,0.1L102.5,139.7z M95.4,136.2h6.1v-0.8c0-1.601-0.9-2.2-3.1-2.2c-2.2,0-3,0.6-3,2.2
			V136.2z"/>
		<path fill="#080908" d="M104.5,141.3v-5.7c0-2.899,2.3-3.6,4.4-3.6c0.199,0,0.3,0,0.5,0.1v0.9c0,0.4-0.5,0.4-1,0.4
			c-1.9,0-2.7,0.699-2.7,2.3v5.7h-1.2V141.3z"/>
		<path fill="#080908" d="M112,132.4h3v1.199h-3v4.4c0,1.6,0.8,2.2,2.7,2.3c0.5,0,0.899,0,1,0.4v0.899c-0.2,0-0.4,0.101-0.5,0.101
			c-2.101,0-4.4-0.601-4.4-3.601v-8.6l1.3,0.9v2H112z"/>
		<path fill="#080908" d="M67.2,135.6c0-1.6,0.8-2.199,2.7-2.3c0.4,0,1-0.1,1-0.399V132c-0.2,0-0.4-0.1-0.5-0.1
			c-2.1,0-4.4,0.6-4.4,3.6v5.7l1.3-0.9v-4.7H67.2z"/>
	</g>
	<g>
		<path fill="#00B1A4" d="M130.4,19.9l-15,13.7c-0.101,0.1-0.101,0.2-0.101,0.2V104.9c-3.399-0.601-5.1-2.301-6.6-6L92.1,54.9
			c-0.1-0.1-0.1-0.1-0.199,0L72.7,72.3l0,0c-0.1,0.1-0.1,0.2-0.2,0.2c-4.8,12.6-9.2,24.2-10.2,26.3c-1.6,4-2.8,5.601-6.4,6.101v-17
			c0-0.2-0.2-0.2-0.3-0.101L39.5,102.4c-0.1,0.1-0.2,0.199-0.2,0.3V116.1c0.1,1.2,0.6,4.101,4.3,4.2h5.1c12.5,0,24.3-0.2,29.5-16.3
			l7.5-23.3l7.2,23.3c4.8,15.4,18,16.3,30.6,16.3h4.6c3-0.3,3.601-2.6,3.7-3.8v-95C131.8,19.4,130.9,19.5,130.4,19.9"/>
		<path fill="#00B1A4" d="M101.3,1.6h-3.6C85.2,1.6,72,2.5,67.2,17.9L60,41.2l-7.5-23.3C47.3,1.9,35.5,1.6,23,1.6h-5.5
			c-3.2,0.3-3.8,2.7-3.9,3.9v96.2c0.1,0.399,0.4,1.2,2.1-0.2l0.9-0.8l0,0c0.1-0.101,0.1-0.101,0.2-0.2l13.2-12
			c0.1-0.1,0.1-0.3,0.2-0.6V17.1c3.6,0.5,4.8,2.1,6.4,6.1c1.3,3.1,10.1,26.1,16.5,43c0.4,0.6,1,0.4,2.5-0.9L73,49.5
			c0,0,0-0.1,0.1-0.1L83,23.2c1.5-3.7,3.2-5.4,6.6-6V34c0.101,0.2,0.2,0.3,0.5,0.1l16-14.6c0.101-0.1,0.101-0.3,0.101-0.4V5.7
			c-0.101-1.3-0.8-4.1-4.5-4.1H101.3z"/>
	</g>
</g>
</svg>
