<?xml version="1.0" encoding="utf-8"?>
<!-- Generator: Adobe Illustrator 16.0.0, SVG Export Plug-In . SVG Version: 6.00 Build 0)  -->
<!DOCTYPE svg PUBLIC "-//W3C//DTD SVG 1.1//EN" "http://www.w3.org/Graphics/SVG/1.1/DTD/svg11.dtd">
<svg version="1.1" id="Ebene_1" xmlns="http://www.w3.org/2000/svg" xmlns:xlink="http://www.w3.org/1999/xlink" x="0px" y="0px"
	 width="215px" height="240px" viewBox="0 0 215 240" enable-background="new 0 0 215 240" xml:space="preserve">
<g opacity="0.8">
	<path fill="#FFC166" stroke="#000000" stroke-linecap="round" stroke-linejoin="round" d="M173.6,116.5h6.1l6.1-7.7l3-12.3h-4.3
		v-4.2l4.4-4.5l-6.1-1.5l-1.6-3l-3,6.1l-4.6-1.5l-1.5-3l-9.1-3l-6.1-7.6l3-1.5l-1.5-12.1l7.6-12.1l-4.5-3v-2.8h-5v-4.7l3.3-9.1
		l6.1-6.1l7.6-1.5v-4.6h-2.9l-1.5-4.5l-15.1,10.6l-3-3l-3,1.5l-6.1-3l-4.5-7.6l-3,3l-7.6-6.1l-15.1,24.2l-7.6-6.1l4.3-7.6l-4.8-3v-3
		l-5.6,3.5h-7.6l1.5,1.3l-4.5,3.1l1.5,4.6h-4.5l3.2,7.2v24.2l2.8,4.6h3l-1.5,9h-4.3v6.1l-14,1.5v4.4h-7.4l-7.6-9L47.9,68l-1.5,4.6
		l3,13.6l3.1,3l-6,1.5v3L31.3,83.2l-10.6,7.6l-1.5,6.1l-6.1-1.5l-1.5,3.2l15.1,22.9h9.1l4.5,5.8l3-3.1l9.1,4.4v9.1l-6.1,3l-1.6,4.5
		l19.6,13.6v10.6l8,4.5v7.6l-3.2,4.5l10.5,13.6l-4.6,12.1l7.5,4.5l1.5,6.1l6.1,3l15.1,1.5l10.6-3l1.5,4.5l4.5-1.5l1.5-3l-3-12.1
		l-9.1-24.2l13.6-3l12.1-13.6l3,4.5l-7.6,15.1l5.8,6.1l21-7.6v-13.6l12.4-12.1l-1.4-7.6l6.1-7.6l-3-6.1l1.7-3l12.3,3v-6.1l-3.3-2.7
		h-13.6l-3-13.8l4.5-3.3l-3-4.9h3L173.6,116.5z M108.5,130.1l-6.1,12.1l-3-1.5l-3,3l-15.3-3l7.4-13.6v-6.1l4.7-3l1.4-4.5l8.9-1.5
		v10.6l5,4.5V130.1z"/>
	<polygon fill="#A7C9EA" stroke="#000000" stroke-linecap="round" stroke-linejoin="round" points="103.5,112 94.6,113.5 93.1,118 
		88.5,121.1 88.5,127.1 81.1,140.7 96.3,143.8 99.4,140.7 102.4,142.3 108.5,130.1 108.5,127.1 103.5,122.6 	"/>
</g>
</svg>
