<?xml version="1.0" encoding="utf-8"?>
<!-- Generator: Adobe Illustrator 16.0.0, SVG Export Plug-In . SVG Version: 6.00 Build 0)  -->
<!DOCTYPE svg PUBLIC "-//W3C//DTD SVG 1.1//EN" "http://www.w3.org/Graphics/SVG/1.1/DTD/svg11.dtd">
<svg version="1.1" id="Ebene_1" xmlns="http://www.w3.org/2000/svg" xmlns:xlink="http://www.w3.org/1999/xlink" x="0px" y="0px"
	 width="240px" height="240px" viewBox="0 0 240 240" enable-background="new 0 0 240 240" xml:space="preserve">
<g opacity="0.8">
	<path fill="#FFC166" stroke="#000000" stroke-linecap="round" stroke-linejoin="round" d="M192.2,118.6h6.3l6.3-7.9l3.1-12.6h-4.4
		v-4.3l4.5-4.6l-6.3-1.5l-1.6-3.1l-3.1,6.3l-4.7-1.5l-1.5-3.1l-9.4-3.1l-6.3-7.8l3.1-1.5l-1.5-12.4l7.8-12.4l-4.6-3.1v-2.9h-5.1V38
		l3.4-9.4l6.3-6.3l7.8-1.5v-4.7h-3l-1.5-4.6L172,22.3l-3.1-3.1l-3.1,1.5l-6.3-3.1l-4.6-7.8l-3.1,3.1L144,6.7l-15.5,24.9l-7.8-6.3
		l4.4-7.8l-4.9-3.1v-3.1l-5.8,3.6h-7.8l1.5,1.3l-4.6,3.2l1.5,4.7h-4.6l3.3,7.4v24.9l2.9,4.7h3.1l-1.5,9.3h-4.4v6.3l-14.4,1.5v4.5
		h-7.6l-7.8-9.3l-11-4.8l-1.5,4.7l3.1,14l3.2,3.1L61.5,92v3.1L45.9,84.3L35,92.1l-1.5,6.3l-6.3-1.5l-1.5,3.3l15.5,23.5h9.4l4.6,6
		l3.1-3.2l9.4,4.5v9.4l-6.3,3.1l-1.6,4.6l20.2,14V173l8.2,4.6v7.8l-3.3,4.6l10.8,14l-4.7,12.4l7.7,4.6l1.5,6.3l6.3,3.1l15.5,1.5
		l10.9-3.1l1.5,4.6l4.6-1.5l1.5-3.1l-3.1-12.4l-9.4-24.9l14-3.1l12.4-14l3.1,4.6l-7.8,15.5l6,6.3l21.6-7.8v-14l12.8-12.4l-1.4-7.8
		l6.3-7.8l-3.1-6.3l1.7-3.1l12.6,3.1v-6.3l-3.4-2.8h-14l-3.1-14.2l4.6-3.4l-3.1-5h3.1L192.2,118.6z M125.2,132.6L119,145l-3.1-1.5
		l-3.1,3.1l-15.7-3.1l7.6-14v-6.3l4.8-3.1l1.4-4.6l9.2-1.5v10.9l5.1,4.6V132.6L125.2,132.6z"/>
	<polygon fill="#A7C9EA" stroke="#000000" stroke-linecap="round" stroke-linejoin="round" points="120.1,113.9 110.9,115.5 
		109.4,120.1 104.7,123.3 104.7,129.5 97.1,143.5 112.7,146.6 115.9,143.5 119,145.1 125.2,132.6 125.2,129.5 120.1,124.8 	"/>
</g>
<g enable-background="new    ">
	<path d="M139.3,147c0,1.3-0.5,2.2-1.4,2.9s-2.1,1.1-3.7,1.1c-1.7,0-3-0.2-3.9-0.7v-1.6c0.6,0.2,1.2,0.4,1.9,0.6s1.4,0.2,2.1,0.2
		c1.1,0,1.9-0.2,2.5-0.6s0.8-1,0.8-1.8c0-0.5-0.1-0.9-0.3-1.2s-0.5-0.6-1-0.9s-1.2-0.6-2.1-0.9c-1.3-0.5-2.3-1-2.8-1.7
		s-0.9-1.5-0.9-2.5c0-1.1,0.4-2,1.2-2.6s1.9-1,3.3-1c1.4,0,2.7,0.3,3.9,0.8l-0.5,1.4c-1.2-0.5-2.3-0.7-3.4-0.7
		c-0.9,0-1.6,0.2-2.1,0.6s-0.7,0.9-0.7,1.6c0,0.5,0.1,0.9,0.3,1.2s0.5,0.6,0.9,0.9s1.1,0.6,2,0.9c1.5,0.5,2.5,1.1,3.1,1.7
		S139.3,146,139.3,147z"/>
	<path d="M145.4,149.7c0.3,0,0.6,0,0.8-0.1s0.5-0.1,0.6-0.1v1.2c-0.2,0.1-0.4,0.2-0.8,0.2s-0.6,0.1-0.9,0.1c-2.1,0-3.1-1.1-3.1-3.3
		v-6.4h-1.5v-0.8l1.5-0.7l0.7-2.3h0.9v2.5h3.1v1.3h-3.1v6.3c0,0.6,0.2,1.1,0.5,1.5S144.9,149.7,145.4,149.7z"/>
	<path d="M155.6,150.8l-0.3-1.5h-0.1c-0.5,0.7-1.1,1.1-1.6,1.4s-1.2,0.4-2,0.4c-1.1,0-1.9-0.3-2.5-0.8s-0.9-1.3-0.9-2.3
		c0-2.2,1.7-3.3,5.2-3.4l1.8-0.1v-0.7c0-0.8-0.2-1.5-0.5-1.9s-0.9-0.6-1.7-0.6c-0.9,0-1.9,0.3-3,0.8l-0.5-1.2
		c0.5-0.3,1.1-0.5,1.7-0.7s1.3-0.2,1.9-0.2c1.3,0,2.2,0.3,2.8,0.8s0.9,1.5,0.9,2.7v7.3H155.6z M151.9,149.7c1,0,1.8-0.3,2.4-0.8
		s0.9-1.3,0.9-2.3v-1l-1.6,0.1c-1.3,0-2.2,0.2-2.8,0.6s-0.9,0.9-0.9,1.7c0,0.6,0.2,1,0.5,1.3S151.3,149.7,151.9,149.7z"/>
	<path d="M167.4,149.4L167.4,149.4c-0.8,1.1-2,1.6-3.4,1.6c-1.4,0-2.5-0.5-3.3-1.4s-1.2-2.3-1.2-4.1s0.4-3.1,1.2-4.1
		s1.9-1.5,3.3-1.5c1.5,0,2.6,0.5,3.3,1.6h0.1l-0.1-0.8l0-0.8v-4.4h1.6v15.2h-1.3L167.4,149.4z M164.2,149.6c1.1,0,1.9-0.3,2.4-0.9
		s0.7-1.6,0.7-2.9v-0.3c0-1.5-0.3-2.6-0.8-3.2s-1.3-1-2.4-1c-1,0-1.7,0.4-2.2,1.1s-0.8,1.8-0.8,3.1c0,1.4,0.2,2.4,0.8,3.1
		S163.2,149.6,164.2,149.6z"/>
	<path d="M175.8,149.7c0.3,0,0.6,0,0.8-0.1s0.5-0.1,0.6-0.1v1.2c-0.2,0.1-0.4,0.2-0.8,0.2s-0.6,0.1-0.9,0.1c-2.1,0-3.1-1.1-3.1-3.3
		v-6.4H171v-0.8l1.5-0.7l0.7-2.3h0.9v2.5h3.1v1.3h-3.1v6.3c0,0.6,0.2,1.1,0.5,1.5S175.3,149.7,175.8,149.7z"/>
</g>
<g enable-background="new    ">
	<path d="M133.9,165.9h-3.8v-2.1h3.8V160h2.1v3.8h3.8v2.1H136v3.8h-2.1V165.9z"/>
	<path d="M148.9,171.9h-3v-8.3l0-1.4l0-1.5c-0.5,0.5-0.8,0.8-1,1l-1.6,1.3l-1.5-1.8l4.6-3.7h2.5V171.9z"/>
	<path d="M160.3,171.9h-3v-8.3l0-1.4l0-1.5c-0.5,0.5-0.8,0.8-1,1l-1.6,1.3l-1.5-1.8l4.6-3.7h2.5V171.9z"/>
	<path d="M168,169.8c-0.3,1.3-0.9,2.9-1.7,4.7h-2.1c0.4-1.7,0.8-3.4,1-4.9h2.7L168,169.8z"/>
	<path d="M177.5,171.9h-3v-8.3l0-1.4l0-1.5c-0.5,0.5-0.8,0.8-1,1l-1.6,1.3l-1.5-1.8l4.6-3.7h2.5V171.9z"/>
	<path d="M188.1,161.9c0,1.5-0.3,2.6-0.9,3.4s-1.4,1.1-2.5,1.1c-1.1,0-1.9-0.4-2.5-1.2s-0.9-1.9-0.9-3.3c0-3,1.1-4.5,3.4-4.5
		c1.1,0,1.9,0.4,2.5,1.2S188.1,160.5,188.1,161.9z M183.8,161.9c0,0.8,0.1,1.4,0.2,1.9s0.4,0.6,0.7,0.6c0.6,0,0.9-0.8,0.9-2.5
		c0-1.6-0.3-2.4-0.9-2.4c-0.3,0-0.6,0.2-0.7,0.6S183.8,161.1,183.8,161.9z M194.8,157.6l-7.9,14.3h-2.3l7.9-14.3H194.8z
		 M198.1,167.6c0,1.5-0.3,2.6-0.9,3.4s-1.4,1.1-2.5,1.1c-1.1,0-1.9-0.4-2.5-1.2s-0.9-1.9-0.9-3.3c0-3,1.1-4.5,3.4-4.5
		c1.1,0,1.9,0.4,2.5,1.2S198.1,166.2,198.1,167.6z M193.8,167.6c0,0.8,0.1,1.4,0.2,1.9s0.4,0.6,0.7,0.6c0.6,0,0.9-0.8,0.9-2.5
		c0-1.6-0.3-2.4-0.9-2.4c-0.3,0-0.6,0.2-0.7,0.6S193.8,166.8,193.8,167.6z"/>
</g>
<g enable-background="new    ">
	<path d="M115.8,73.1V58.8h1.7v12.8h6.3v1.5H115.8z"/>
	<path d="M132.5,73.1l-0.3-1.5h-0.1c-0.5,0.7-1.1,1.1-1.6,1.4c-0.5,0.2-1.2,0.4-2,0.4c-1.1,0-1.9-0.3-2.5-0.8
		c-0.6-0.5-0.9-1.3-0.9-2.3c0-2.2,1.7-3.3,5.2-3.4l1.8-0.1V66c0-0.8-0.2-1.5-0.5-1.9s-0.9-0.6-1.7-0.6c-0.9,0-1.9,0.3-3,0.8
		l-0.5-1.2c0.5-0.3,1.1-0.5,1.7-0.7c0.6-0.2,1.3-0.2,1.9-0.2c1.3,0,2.2,0.3,2.8,0.8s0.9,1.5,0.9,2.7v7.3H132.5z M128.8,72
		c1,0,1.8-0.3,2.4-0.8s0.9-1.3,0.9-2.3v-1l-1.6,0.1c-1.3,0-2.2,0.2-2.8,0.6c-0.6,0.4-0.9,0.9-0.9,1.7c0,0.6,0.2,1,0.5,1.3
		C127.7,71.8,128.2,72,128.8,72z"/>
	<path d="M144.3,73.1v-6.9c0-0.9-0.2-1.5-0.6-2c-0.4-0.4-1-0.6-1.9-0.6c-1.1,0-1.9,0.3-2.5,0.9c-0.5,0.6-0.8,1.6-0.8,3v5.6H137V62.4
		h1.3l0.3,1.5h0.1c0.3-0.5,0.8-0.9,1.4-1.2c0.6-0.3,1.3-0.4,2-0.4c1.3,0,2.3,0.3,2.9,0.9c0.7,0.6,1,1.6,1,3v7H144.3z"/>
	<path d="M156.6,71.7L156.6,71.7c-0.8,1.1-2,1.6-3.4,1.6c-1.4,0-2.5-0.5-3.3-1.4c-0.8-1-1.2-2.3-1.2-4.1s0.4-3.1,1.2-4.1
		s1.9-1.5,3.3-1.5c1.5,0,2.6,0.5,3.3,1.6h0.1l-0.1-0.8l0-0.8v-4.4h1.6v15.2h-1.3L156.6,71.7z M153.3,71.9c1.1,0,1.9-0.3,2.4-0.9
		s0.7-1.6,0.7-2.9v-0.3c0-1.5-0.3-2.6-0.8-3.2c-0.5-0.6-1.3-1-2.4-1c-1,0-1.7,0.4-2.2,1.1c-0.5,0.7-0.8,1.8-0.8,3.1
		c0,1.4,0.2,2.4,0.8,3.1C151.6,71.6,152.4,71.9,153.3,71.9z"/>
	<path d="M163.2,67.6c0.3-0.4,0.7-0.9,1.3-1.6l3.5-3.7h1.9l-4.3,4.6l4.6,6.1h-2l-3.8-5.1l-1.2,1.1v4h-1.6V57.9h1.6V66
		C163.2,66.3,163.1,66.9,163.2,67.6L163.2,67.6z"/>
	<path d="M176.9,62.2c0.5,0,0.9,0,1.3,0.1l-0.2,1.5c-0.4-0.1-0.8-0.1-1.2-0.1c-0.9,0-1.6,0.4-2.2,1.1s-0.9,1.6-0.9,2.6v5.7h-1.6
		V62.4h1.3l0.2,2h0.1c0.4-0.7,0.9-1.2,1.4-1.6C175.6,62.4,176.3,62.2,176.9,62.2z"/>
	<path d="M184.7,73.3c-1.6,0-2.8-0.5-3.7-1.4c-0.9-1-1.4-2.3-1.4-4c0-1.7,0.4-3.1,1.3-4.1s2-1.5,3.4-1.5c1.3,0,2.4,0.4,3.2,1.3
		s1.2,2,1.2,3.5v1h-7.4c0,1.3,0.3,2.2,1,2.9c0.6,0.7,1.5,1,2.5,1c1.2,0,2.3-0.2,3.4-0.7v1.4c-0.6,0.2-1.1,0.4-1.6,0.5
		C186.1,73.2,185.5,73.3,184.7,73.3z M184.3,63.6c-0.9,0-1.5,0.3-2.1,0.8c-0.5,0.6-0.8,1.3-0.9,2.3h5.6c0-1-0.2-1.8-0.7-2.3
		C185.8,63.8,185.1,63.6,184.3,63.6z"/>
	<path d="M191.3,59.5c0-0.4,0.1-0.6,0.3-0.8c0.2-0.2,0.4-0.3,0.7-0.3c0.3,0,0.5,0.1,0.7,0.3c0.2,0.2,0.3,0.4,0.3,0.8
		s-0.1,0.6-0.3,0.8c-0.2,0.2-0.4,0.3-0.7,0.3c-0.3,0-0.5-0.1-0.7-0.3C191.4,60.1,191.3,59.9,191.3,59.5z M193.1,73.1h-1.6V62.4h1.6
		V73.1z"/>
	<path d="M203.4,70.2c0,1-0.4,1.8-1.1,2.3s-1.8,0.8-3.1,0.8c-1.4,0-2.5-0.2-3.3-0.7v-1.5c0.5,0.3,1.1,0.5,1.7,0.6
		c0.6,0.1,1.2,0.2,1.7,0.2c0.8,0,1.5-0.1,2-0.4c0.5-0.3,0.7-0.7,0.7-1.2c0-0.4-0.2-0.8-0.5-1.1s-1.1-0.6-2.1-1c-1-0.4-1.7-0.7-2.1-1
		s-0.7-0.6-0.9-0.9s-0.3-0.8-0.3-1.3c0-0.9,0.4-1.6,1.1-2.1c0.7-0.5,1.7-0.8,2.9-0.8c1.2,0,2.3,0.2,3.4,0.7l-0.6,1.3
		c-1.1-0.4-2-0.7-2.9-0.7c-0.8,0-1.3,0.1-1.7,0.4s-0.6,0.6-0.6,1c0,0.3,0.1,0.5,0.2,0.7s0.4,0.4,0.7,0.6c0.3,0.2,1,0.4,1.9,0.8
		c1.3,0.5,2.1,0.9,2.6,1.4C203.2,68.9,203.4,69.5,203.4,70.2z"/>
</g>
<g enable-background="new    ">
	<path d="M114.4,90.1v-2.4h5.2v2.4H114.4z"/>
	<path d="M128.5,94.2h-3V86l0-1.4l0-1.5c-0.5,0.5-0.8,0.8-1,1l-1.6,1.3l-1.5-1.8l4.6-3.7h2.5V94.2z"/>
	<path d="M139.9,94.2h-3V86l0-1.4l0-1.5c-0.5,0.5-0.8,0.8-1,1l-1.6,1.3l-1.5-1.8l4.6-3.7h2.5V94.2z"/>
	<path d="M147.6,92.1c-0.3,1.3-0.9,2.9-1.7,4.7h-2.1c0.4-1.7,0.8-3.4,1-4.9h2.7L147.6,92.1z"/>
	<path d="M159.1,83.1c0,0.9-0.3,1.7-0.8,2.3c-0.5,0.6-1.3,1.1-2.3,1.3v0.1c1.2,0.1,2,0.5,2.6,1c0.6,0.6,0.9,1.3,0.9,2.3
		c0,1.4-0.5,2.4-1.5,3.2s-2.4,1.1-4.3,1.1c-1.5,0-2.9-0.3-4.1-0.8v-2.6c0.6,0.3,1.2,0.5,1.8,0.7s1.3,0.3,2,0.3c1,0,1.7-0.2,2.2-0.5
		c0.5-0.3,0.7-0.9,0.7-1.6c0-0.7-0.3-1.1-0.8-1.4s-1.4-0.4-2.6-0.4h-1.1v-2.3h1.1c1.1,0,1.9-0.1,2.4-0.4c0.5-0.3,0.8-0.8,0.8-1.5
		c0-1.1-0.7-1.6-2-1.6c-0.5,0-0.9,0.1-1.4,0.2c-0.5,0.2-1,0.4-1.6,0.8l-1.4-2.1c1.3-0.9,2.9-1.4,4.7-1.4c1.5,0,2.6,0.3,3.5,0.9
		C158.7,81.2,159.1,82.1,159.1,83.1z"/>
	<path d="M167.7,84.2c0,1.5-0.3,2.6-0.9,3.4c-0.6,0.8-1.4,1.1-2.5,1.1c-1.1,0-1.9-0.4-2.5-1.2s-0.9-1.9-0.9-3.3c0-3,1.1-4.5,3.4-4.5
		c1.1,0,1.9,0.4,2.5,1.2C167.4,81.7,167.7,82.8,167.7,84.2z M163.4,84.2c0,0.8,0.1,1.4,0.2,1.9s0.4,0.6,0.7,0.6
		c0.6,0,0.9-0.8,0.9-2.5c0-1.6-0.3-2.4-0.9-2.4c-0.3,0-0.6,0.2-0.7,0.6S163.4,83.4,163.4,84.2z M174.4,79.9l-7.9,14.3h-2.3l7.9-14.3
		H174.4z M177.7,89.9c0,1.5-0.3,2.6-0.9,3.4c-0.6,0.8-1.4,1.1-2.5,1.1c-1.1,0-1.9-0.4-2.5-1.2s-0.9-1.9-0.9-3.3c0-3,1.1-4.5,3.4-4.5
		c1.1,0,1.9,0.4,2.5,1.2C177.4,87.4,177.7,88.5,177.7,89.9z M173.4,89.9c0,0.8,0.1,1.4,0.2,1.9s0.4,0.6,0.7,0.6
		c0.6,0,0.9-0.8,0.9-2.5c0-1.6-0.3-2.4-0.9-2.4c-0.3,0-0.6,0.2-0.7,0.6S173.4,89.1,173.4,89.9z"/>
</g>
</svg>
