<?xml version="1.0" encoding="utf-8"?>
<!-- Generator: Adobe Illustrator 16.0.0, SVG Export Plug-In . SVG Version: 6.00 Build 0)  -->
<!DOCTYPE svg PUBLIC "-//W3C//DTD SVG 1.1//EN" "http://www.w3.org/Graphics/SVG/1.1/DTD/svg11.dtd">
<svg version="1.1" id="Ebene_1" xmlns="http://www.w3.org/2000/svg" xmlns:xlink="http://www.w3.org/1999/xlink" x="0px" y="0px"
	 width="240px" height="240px" viewBox="0 0 240 240" enable-background="new 0 0 240 240" xml:space="preserve">
<g opacity="0.8">
	<path fill="#FFC166" stroke="#000000" stroke-linecap="round" stroke-linejoin="round" d="M184.3,118.1h6.2l6.2-7.8l3-12.4h-4.3
		v-4.2l4.4-4.5l-6.2-1.5l-1.6-3l-3,6.2l-4.6-1.5l-1.5-3l-9.2-3l-6.2-7.7l3-1.5l-1.5-12.2l7.7-12.2l-4.5-3v-2.8h-5V39l3.3-9.2
		l6.2-6.2l7.7-1.5v-4.6h-2.9l-1.5-4.5l-15.2,10.7l-3-3l-3,1.5l-6.2-3l-4.5-7.7l-3,3L137,8.3l-15.2,24.4l-7.7-6.2l4.3-7.7l-4.8-3v-3
		l-5.7,3.5h-7.7l1.5,1.3l-4.5,3.1l1.5,4.6h-4.5l3.2,7.3v24.4l2.8,4.6h3l-1.5,9.1h-4.3V77l-14.1,1.5V83h-7.5l-7.7-9.1l-10.8-4.7
		l-1.5,4.6l3,13.7l3.1,3l-6.1,1.5v3L40.6,84.5l-10.7,7.7l-1.5,6.2l-6.2-1.5l-1.5,3.2L36,123.2h9.2l4.5,5.9l3-3.1l9.2,4.4v9.2l-6.2,3
		l-1.6,4.5l19.8,13.7v10.7l8.1,4.5v7.7l-3.2,4.5L89.4,202l-4.6,12.2l7.6,4.5l1.5,6.2l6.2,3l15.2,1.5l10.7-3l1.5,4.5l4.5-1.5l1.5-3
		l-3-12.2l-9.2-24.4l13.7-3l12.2-13.7l3,4.5l-7.7,15.2l5.9,6.2l21.2-7.7v-13.7l12.5-12.2l-1.4-7.7l6.2-7.7l-3-6.2l1.7-3l12.4,3v-6.2
		l-3.3-2.7h-13.7l-3-13.9l4.5-3.3l-3-4.9h3L184.3,118.1z M118.5,131.9l-6.2,12.2l-3-1.5l-3,3l-15.4-3l7.5-13.7v-6.2l4.7-3l1.4-4.5
		l9-1.5v10.7l5,4.5V131.9z"/>
	<polygon fill="#A7C9EA" stroke="#000000" stroke-linecap="round" stroke-linejoin="round" points="113.5,113.6 104.5,115.1 
		103,119.6 98.3,122.8 98.3,128.8 90.9,142.6 106.2,145.7 109.4,142.6 112.4,144.2 118.5,131.9 118.5,128.8 113.5,124.3 	"/>
</g>
</svg>
