<?xml version="1.0" encoding="utf-8"?>
<!-- Generator: Adobe Illustrator 16.0.0, SVG Export Plug-In . SVG Version: 6.00 Build 0)  -->
<!DOCTYPE svg PUBLIC "-//W3C//DTD SVG 1.1//EN" "http://www.w3.org/Graphics/SVG/1.1/DTD/svg11.dtd">
<svg version="1.1" id="Ebene_1" xmlns="http://www.w3.org/2000/svg" xmlns:xlink="http://www.w3.org/1999/xlink" x="0px" y="0px"
	 width="274px" height="240px" viewBox="0 0 274 240" enable-background="new 0 0 274 240" xml:space="preserve">
<g opacity="0.8">
	<path fill="#D81D09" stroke="#000000" stroke-linecap="round" stroke-linejoin="round" d="M258.2,175.1l1.5-7.3l-2.9-4.4v-10.2
		l-8.7,1.5V146l-2.9-2.9l2.9-8.7l-2.9-7.3l-20.3-8.7l-4.4-10.2l-5.8-2.9v-8.7l-4.4,2.9l-1.5-5.8l-2.9-1.5l-13.1,4.4l-10.2-4.4
		l-4.4,2.9l-7.3-2.9V80.7l-7.3-1.5v-2.9l-5.8-2.9l1.5-7.3l-4.4-2.9v-4.4l-2.9-1.5v4.4l-5.8,2.9l-4.4,7.3l-7.3-1.5l-2.9,16l-10.2-2.9
		l-1.5,2.9l-5.8-2.9l-1.5-5.8l-8.7-5.8l-8.7,5.8l-4.4-2.9l-7.3,5.8l-4.4-1.5L70.8,69l-1.5-8.7L65,58.9l-1.5,2.9l-5.8-1.5l-5.8,4.4
		l-13.1-1.5l-4.4,10.2l-5.8-1.5v5.8l-2.9,1.5l-4.4-2.9L17,79.2l-2.9-1.5L9.8,87.9v8.7l4.4,4.4l1.5,14.5L20,117l-5.8,8.7l2.9,14.5
		l-4.4,2.9v7.3h26.2l4.4-4.4h4.4l1.5-4.4l8.7-1.5l17.4,7.3l2.9-2.9l23.2,1.5v11.6h2.9l1.5,2.9l-2.9,2.9l1.5,7.3l23.2,1.5l-1.5,4.4
		l7.3,1.5l2.9-2.9l4.4,4.4l-1.5,4.4l2.9-5.8l11.6-2.9l5.8-10.2l4.4,2.9l4.4-1.5l4.4,5.8l-1.5,4.4l2.9,5.8l1.5-1.5l1.5,7.3l4.4-2.9
		l1.5,2.9h4.4l1.5,7.3l11.6,2.9v-2.9l4.4,1.5l2.9-2.9h5.8l1.5-4.4l7.3,1.5l-1.5,2.9h4.4l2.9-4.4l-1.5-2.9l5.8-1.5l1.5-2.9l14.5,5.8
		l11.6-5.8l5.8,2.9L258.2,175.1z M175.4,147.5l-4.4,1.5l-7.3-13.1l-2.9,4.4h-4.4l-1.5-4.4h-2.9l-2.9,10.2l-2.9,2.9l1.5,1.5l-2.9,4.4
		l-2.9,1.5l-4.4-11.6l-5.8-1.5l1.5-2.9l-2.9-1.5v-4.4l-2.9-2.9v-4.4l2.9-1.5l-2.9-2.9l1.5-2.9l10.2,1.5l2.9-4.4l5.8,2.9l4.4-1.5
		l7.3,8.7h7.3v5.8l8.7,2.9V147.5z"/>
	<polygon fill="#F7EEC1" stroke="#000000" stroke-linecap="round" stroke-linejoin="round" points="166.7,127.1 159.4,127.1 
		152.2,118.4 147.8,119.9 142,117 139.1,121.3 128.9,119.9 127.5,122.8 130.4,125.7 127.5,127.1 127.5,131.5 130.4,134.4 
		130.4,138.8 133.3,140.2 131.8,143.1 137.6,144.6 142,156.2 144.9,154.8 147.8,150.4 146.4,148.9 149.3,146 152.2,135.9 
		155.1,135.9 156.5,140.2 160.9,140.2 163.8,135.9 171.1,148.9 175.4,147.5 175.4,135.9 166.7,133 	"/>
</g>
</svg>
