<?xml version="1.0" encoding="utf-8"?>
<!-- Generator: Adobe Illustrator 16.0.0, SVG Export Plug-In . SVG Version: 6.00 Build 0)  -->
<!DOCTYPE svg PUBLIC "-//W3C//DTD SVG 1.1//EN" "http://www.w3.org/Graphics/SVG/1.1/DTD/svg11.dtd">
<svg version="1.1" id="Ebene_1" xmlns="http://www.w3.org/2000/svg" xmlns:xlink="http://www.w3.org/1999/xlink" x="0px" y="0px"
	 width="240px" height="240px" viewBox="0 0 240 240" enable-background="new 0 0 240 240" xml:space="preserve">
<g opacity="0.8">
	<path fill="#D81D09" stroke="#000000" stroke-linecap="round" stroke-linejoin="round" d="M227.2,162l1.3-6.5l-2.6-3.9v-9.1
		l-7.7,1.3v-7.7l-2.6-2.6l2.6-7.7l-2.6-6.5l-18.1-7.7l-3.9-9.1l-5.2-2.6v-7.7l-3.9,2.6l-1.3-5.2l-2.6-1.3l-11.7,3.9l-9.1-3.9
		l-3.9,2.6l-6.5-2.6V78l-6.5-1.3v-2.6l-5.2-2.6l1.3-6.5l-3.9-2.6v-3.9l-2.6-1.3v3.9l-5.2,2.6l-3.9,6.5l-6.5-1.3l-2.6,14.2l-9.1-2.6
		l-1.3,2.6l-5.2-2.6l-1.3-5.2l-7.7-5.2l-7.7,5.2l-3.9-2.6l-6.5,5.2l-3.9-1.3l-7.4-9L59,59.8l-3.8-1.2l-1.3,2.6l-5.2-1.3l-5.2,3.9
		l-11.7-1.3l-3.9,9.1l-5.2-1.3v5.2l-2.6,1.3l-3.9-2.6l-3.8,2.6l-2.6-1.3L6,84.4v7.7l3.9,3.9l1.3,12.9l3.8,1.3L10,118l2.6,12.9
		l-3.9,2.6v6.5h23.3l3.9-3.9h3.9l1.3-3.9l7.7-1.3l15.5,6.5l2.6-2.6l20.7,1.3v10.3h2.6l1.3,2.6l-2.6,2.6l1.3,6.5l20.6,1.3l-1.3,3.9
		l6.5,1.3l2.6-2.6l3.9,3.9l-1.3,3.9l2.6-5.2l10.3-2.6l5.2-9.1l3.9,2.6l3.9-1.3l3.9,5.2l-1.3,3.9l2.6,5.2l1.3-1.3l1.3,6.5l3.9-2.6
		l1.3,2.6h3.9l1.3,6.5l10.3,2.6v-2.6l3.9,1.3l2.6-2.6h5.2l1.3-3.9l6.5,1.3l-1.3,2.6h3.9l2.6-3.9l-1.3-2.6l5.2-1.3l1.3-2.6l12.9,5.2
		l10.3-5.2l5.2,2.6L227.2,162z M153.4,137.4l-3.9,1.3l-6.5-11.7l-2.6,3.9h-3.9l-1.3-3.9h-2.6l-2.6,9.1l-2.6,2.6l1.3,1.3l-2.6,3.9
		l-2.6,1.3l-3.9-10.3l-5.2-1.3l1.3-2.6l-2.6-1.3v-3.9l-2.6-2.6v-3.9l2.6-1.3l-2.6-2.6l1.3-2.6l9.1,1.3l2.6-3.9l5.2,2.6l3.9-1.3
		l6.5,7.7h6.5v5.2l7.7,2.6L153.4,137.4L153.4,137.4L153.4,137.4z"/>
	<polygon fill="#F7EEC1" stroke="#000000" stroke-linecap="round" stroke-linejoin="round" points="145.7,119.3 139.2,119.3 
		132.8,111.5 128.9,112.9 123.7,110.3 121.1,114.1 112.1,112.9 110.8,115.5 113.4,118 110.8,119.3 110.8,123.2 113.4,125.8 
		113.4,129.7 116,130.9 114.6,133.5 119.8,134.9 123.7,145.2 126.3,143.9 128.9,140 127.6,138.7 130.2,136.1 132.8,127.1 
		135.4,127.1 136.6,130.9 140.5,130.9 143.1,127.1 149.6,138.7 153.4,137.4 153.4,127.1 145.7,124.5 	"/>
</g>
<g enable-background="new    ">
	<path d="M168.5,137.4c0,1.3-0.5,2.2-1.4,2.9s-2.1,1.1-3.7,1.1c-1.7,0-3-0.2-3.9-0.7v-1.6c0.6,0.2,1.2,0.4,1.9,0.6s1.4,0.2,2.1,0.2
		c1.1,0,1.9-0.2,2.5-0.6s0.8-1,0.8-1.8c0-0.5-0.1-0.9-0.3-1.2s-0.5-0.6-1-0.9s-1.2-0.6-2.1-0.9c-1.3-0.5-2.3-1-2.8-1.7
		s-0.9-1.5-0.9-2.5c0-1.1,0.4-2,1.2-2.6s1.9-1,3.3-1c1.4,0,2.7,0.3,3.9,0.8l-0.5,1.4c-1.2-0.5-2.3-0.7-3.4-0.7
		c-0.9,0-1.6,0.2-2.1,0.6s-0.7,0.9-0.7,1.6c0,0.5,0.1,0.9,0.3,1.2s0.5,0.6,0.9,0.9s1.1,0.6,2,0.9c1.5,0.5,2.5,1.1,3.1,1.7
		S168.5,136.4,168.5,137.4z"/>
	<path d="M174.7,140.1c0.3,0,0.6,0,0.8-0.1s0.5-0.1,0.6-0.1v1.2c-0.2,0.1-0.4,0.2-0.8,0.2s-0.6,0.1-0.9,0.1c-2.1,0-3.1-1.1-3.1-3.3
		v-6.4h-1.5V131l1.5-0.7l0.7-2.3h0.9v2.5h3.1v1.3H173v6.3c0,0.6,0.2,1.1,0.5,1.5S174.1,140.1,174.7,140.1z"/>
	<path d="M184.9,141.2l-0.3-1.5h-0.1c-0.5,0.7-1.1,1.1-1.6,1.4s-1.2,0.4-2,0.4c-1.1,0-1.9-0.3-2.5-0.8s-0.9-1.3-0.9-2.3
		c0-2.2,1.7-3.3,5.2-3.4l1.8-0.1v-0.7c0-0.8-0.2-1.5-0.5-1.9s-0.9-0.6-1.7-0.6c-0.9,0-1.9,0.3-3,0.8l-0.5-1.2
		c0.5-0.3,1.1-0.5,1.7-0.7s1.3-0.2,1.9-0.2c1.3,0,2.2,0.3,2.8,0.8s0.9,1.5,0.9,2.7v7.3H184.9z M181.2,140.1c1,0,1.8-0.3,2.4-0.8
		s0.9-1.3,0.9-2.3v-1l-1.6,0.1c-1.3,0-2.2,0.2-2.8,0.6s-0.9,0.9-0.9,1.7c0,0.6,0.2,1,0.5,1.3S180.6,140.1,181.2,140.1z"/>
	<path d="M196.7,139.8L196.7,139.8c-0.8,1.1-2,1.6-3.4,1.6c-1.4,0-2.5-0.5-3.3-1.4s-1.2-2.3-1.2-4.1s0.4-3.1,1.2-4.1
		s1.9-1.5,3.3-1.5c1.5,0,2.6,0.5,3.3,1.6h0.1l-0.1-0.8l0-0.8V126h1.6v15.2h-1.3L196.7,139.8z M193.4,140c1.1,0,1.9-0.3,2.4-0.9
		s0.7-1.6,0.7-2.9v-0.3c0-1.5-0.3-2.6-0.8-3.2s-1.3-1-2.4-1c-1,0-1.7,0.4-2.2,1.1s-0.8,1.8-0.8,3.1c0,1.4,0.2,2.4,0.8,3.1
		S192.5,140,193.4,140z"/>
	<path d="M205.1,140.1c0.3,0,0.6,0,0.8-0.1s0.5-0.1,0.6-0.1v1.2c-0.2,0.1-0.4,0.2-0.8,0.2s-0.6,0.1-0.9,0.1c-2.1,0-3.1-1.1-3.1-3.3
		v-6.4h-1.5V131l1.5-0.7l0.7-2.3h0.9v2.5h3.1v1.3h-3.1v6.3c0,0.6,0.2,1.1,0.5,1.5S204.6,140.1,205.1,140.1z"/>
</g>
<g enable-background="new    ">
	<path d="M159.1,158.2v-2.4h5.2v2.4H159.1z"/>
	<path d="M175.2,151.2c0,0.9-0.3,1.7-0.8,2.3s-1.3,1.1-2.3,1.3v0.1c1.2,0.1,2,0.5,2.6,1s0.9,1.3,0.9,2.3c0,1.4-0.5,2.4-1.5,3.2
		s-2.4,1.1-4.3,1.1c-1.5,0-2.9-0.3-4.1-0.8v-2.6c0.6,0.3,1.2,0.5,1.8,0.7s1.3,0.3,2,0.3c1,0,1.7-0.2,2.2-0.5s0.7-0.9,0.7-1.6
		c0-0.7-0.3-1.1-0.8-1.4s-1.4-0.4-2.6-0.4h-1.1v-2.3h1.1c1.1,0,1.9-0.1,2.4-0.4s0.8-0.8,0.8-1.5c0-1.1-0.7-1.6-2-1.6
		c-0.5,0-0.9,0.1-1.4,0.2s-1,0.4-1.6,0.8l-1.4-2.1c1.3-0.9,2.9-1.4,4.7-1.4c1.5,0,2.6,0.3,3.5,0.9S175.2,150.2,175.2,151.2z"/>
	<path d="M180.9,160.2c-0.3,1.3-0.9,2.9-1.7,4.7H177c0.4-1.7,0.8-3.4,1-4.9h2.7L180.9,160.2z"/>
	<path d="M184.4,162.3l5.4-11.7h-7v-2.5H193v1.9l-5.4,12.4H184.4z"/>
	<path d="M201,152.3c0,1.5-0.3,2.6-0.9,3.4s-1.4,1.1-2.5,1.1c-1.1,0-1.9-0.4-2.5-1.2s-0.9-1.9-0.9-3.3c0-3,1.1-4.5,3.4-4.5
		c1.1,0,1.9,0.4,2.5,1.2S201,150.9,201,152.3z M196.7,152.3c0,0.8,0.1,1.4,0.2,1.9s0.4,0.6,0.7,0.6c0.6,0,0.9-0.8,0.9-2.5
		c0-1.6-0.3-2.4-0.9-2.4c-0.3,0-0.6,0.2-0.7,0.6S196.7,151.5,196.7,152.3z M207.7,148l-7.9,14.3h-2.3l7.9-14.3H207.7z M211,158
		c0,1.5-0.3,2.6-0.9,3.4s-1.4,1.1-2.5,1.1c-1.1,0-1.9-0.4-2.5-1.2s-0.9-1.9-0.9-3.3c0-3,1.1-4.5,3.4-4.5c1.1,0,1.9,0.4,2.5,1.2
		S211,156.6,211,158z M206.7,158c0,0.8,0.1,1.4,0.2,1.9s0.4,0.6,0.7,0.6c0.6,0,0.9-0.8,0.9-2.5c0-1.6-0.3-2.4-0.9-2.4
		c-0.3,0-0.6,0.2-0.7,0.6S206.7,157.2,206.7,158z"/>
</g>
<g enable-background="new    ">
	<path d="M25.3,101.1V86.8h1.7v12.8h6.3v1.5H25.3z"/>
	<path d="M42,101.1l-0.3-1.5h-0.1c-0.5,0.7-1.1,1.1-1.6,1.4s-1.2,0.4-2,0.4c-1.1,0-1.9-0.3-2.5-0.8s-0.9-1.3-0.9-2.3
		c0-2.2,1.7-3.3,5.2-3.4l1.8-0.1V94c0-0.8-0.2-1.5-0.5-1.9s-0.9-0.6-1.7-0.6c-0.9,0-1.9,0.3-3,0.8l-0.5-1.2c0.5-0.3,1.1-0.5,1.7-0.7
		s1.3-0.2,1.9-0.2c1.3,0,2.2,0.3,2.8,0.8s0.9,1.5,0.9,2.7v7.3H42z M38.3,100c1,0,1.8-0.3,2.4-0.8s0.9-1.3,0.9-2.3v-1L40,95.9
		c-1.3,0-2.2,0.2-2.8,0.6s-0.9,0.9-0.9,1.7c0,0.6,0.2,1,0.5,1.3S37.7,100,38.3,100z"/>
	<path d="M53.9,101.1v-6.9c0-0.9-0.2-1.5-0.6-2s-1-0.6-1.9-0.6c-1.1,0-1.9,0.3-2.5,0.9s-0.8,1.6-0.8,3v5.6h-1.6V90.4h1.3l0.3,1.5
		h0.1c0.3-0.5,0.8-0.9,1.4-1.2s1.3-0.4,2-0.4c1.3,0,2.3,0.3,2.9,0.9s1,1.6,1,3v7H53.9z"/>
	<path d="M66.1,99.7L66.1,99.7c-0.8,1.1-2,1.6-3.4,1.6c-1.4,0-2.5-0.5-3.3-1.4s-1.2-2.3-1.2-4.1s0.4-3.1,1.2-4.1s1.9-1.5,3.3-1.5
		c1.5,0,2.6,0.5,3.3,1.6h0.1L66.1,91l0-0.8v-4.4h1.6v15.2h-1.3L66.1,99.7z M62.9,99.9c1.1,0,1.9-0.3,2.4-0.9s0.7-1.6,0.7-2.9v-0.3
		c0-1.5-0.3-2.6-0.8-3.2s-1.3-1-2.4-1c-1,0-1.7,0.4-2.2,1.1s-0.8,1.8-0.8,3.1c0,1.4,0.3,2.4,0.8,3.1S61.9,99.9,62.9,99.9z"/>
	<path d="M72.7,95.6c0.3-0.4,0.7-0.9,1.3-1.6l3.5-3.7h1.9L75,95l4.6,6.1h-2L73.9,96l-1.2,1.1v4h-1.6V85.9h1.6V94
		C72.7,94.3,72.7,94.9,72.7,95.6L72.7,95.6z"/>
	<path d="M86.5,90.2c0.5,0,0.9,0,1.3,0.1l-0.2,1.5c-0.4-0.1-0.8-0.1-1.2-0.1c-0.9,0-1.6,0.4-2.2,1.1s-0.9,1.6-0.9,2.6v5.7h-1.6V90.4
		h1.3l0.2,2h0.1c0.4-0.7,0.9-1.2,1.4-1.6S85.8,90.2,86.5,90.2z"/>
	<path d="M94.3,101.3c-1.6,0-2.8-0.5-3.7-1.4s-1.4-2.3-1.4-4c0-1.7,0.4-3.1,1.3-4.1s2-1.5,3.4-1.5c1.3,0,2.4,0.4,3.2,1.3
		s1.2,2,1.2,3.5v1h-7.4c0,1.3,0.4,2.2,1,2.9s1.5,1,2.5,1c1.2,0,2.3-0.2,3.4-0.7v1.4c-0.6,0.2-1.1,0.4-1.6,0.5S95,101.3,94.3,101.3z
		 M93.8,91.6c-0.9,0-1.5,0.3-2.1,0.8s-0.8,1.3-0.9,2.3h5.6c0-1-0.2-1.8-0.7-2.3S94.7,91.6,93.8,91.6z"/>
	<path d="M100.8,87.5c0-0.4,0.1-0.6,0.3-0.8s0.4-0.3,0.7-0.3c0.3,0,0.5,0.1,0.7,0.3s0.3,0.4,0.3,0.8s-0.1,0.6-0.3,0.8
		s-0.4,0.3-0.7,0.3c-0.3,0-0.5-0.1-0.7-0.3S100.8,87.9,100.8,87.5z M102.6,101.1H101V90.4h1.6V101.1z"/>
	<path d="M112.9,98.2c0,1-0.4,1.8-1.1,2.3s-1.8,0.8-3.1,0.8c-1.4,0-2.5-0.2-3.3-0.7v-1.5c0.5,0.3,1.1,0.5,1.7,0.6s1.2,0.2,1.7,0.2
		c0.8,0,1.5-0.1,2-0.4s0.7-0.7,0.7-1.2c0-0.4-0.2-0.8-0.5-1.1s-1.1-0.6-2.1-1c-1-0.4-1.7-0.7-2.1-1s-0.7-0.6-0.9-0.9
		s-0.3-0.8-0.3-1.3c0-0.9,0.4-1.6,1.1-2.1s1.7-0.8,2.9-0.8c1.2,0,2.3,0.2,3.4,0.7l-0.6,1.3c-1.1-0.4-2-0.7-2.9-0.7
		c-0.8,0-1.3,0.1-1.7,0.4s-0.6,0.6-0.6,1c0,0.3,0.1,0.5,0.2,0.7s0.4,0.4,0.7,0.6s1,0.4,1.9,0.8c1.3,0.5,2.1,0.9,2.6,1.4
		S112.9,97.5,112.9,98.2z"/>
</g>
<g enable-background="new    ">
	<path d="M23.9,118.1v-2.4h5.2v2.4H23.9z"/>
	<path d="M40,111.1c0,0.9-0.3,1.7-0.8,2.3s-1.3,1.1-2.3,1.3v0.1c1.2,0.1,2,0.5,2.6,1s0.9,1.3,0.9,2.3c0,1.4-0.5,2.4-1.5,3.2
		s-2.4,1.1-4.3,1.1c-1.5,0-2.9-0.3-4.1-0.8v-2.6c0.6,0.3,1.2,0.5,1.8,0.7s1.3,0.3,2,0.3c1,0,1.7-0.2,2.2-0.5s0.7-0.9,0.7-1.6
		c0-0.7-0.3-1.1-0.8-1.4S35,116,33.8,116h-1.1v-2.3h1.1c1.1,0,1.9-0.1,2.4-0.4s0.8-0.8,0.8-1.5c0-1.1-0.7-1.6-2-1.6
		c-0.5,0-0.9,0.1-1.4,0.2s-1,0.4-1.6,0.8l-1.4-2.1c1.3-0.9,2.9-1.4,4.7-1.4c1.5,0,2.6,0.3,3.5,0.9S40,110.1,40,111.1z"/>
	<path d="M43.4,122.2l5.4-11.7h-7V108H52v1.9l-5.4,12.4H43.4z"/>
	<path d="M57.1,120.1c-0.3,1.3-0.9,2.9-1.7,4.7h-2.1c0.4-1.7,0.8-3.4,1-4.9h2.7L57.1,120.1z"/>
	<path d="M66.7,122.2h-3V114l0-1.4l0-1.5c-0.5,0.5-0.8,0.8-1,1l-1.6,1.3l-1.5-1.8l4.6-3.7h2.5V122.2z"/>
	<path d="M77.2,112.2c0,1.5-0.3,2.6-0.9,3.4s-1.4,1.1-2.5,1.1c-1.1,0-1.9-0.4-2.5-1.2s-0.9-1.9-0.9-3.3c0-3,1.1-4.5,3.4-4.5
		c1.1,0,1.9,0.4,2.5,1.2S77.2,110.8,77.2,112.2z M72.9,112.2c0,0.8,0.1,1.4,0.2,1.9s0.4,0.6,0.7,0.6c0.6,0,0.9-0.8,0.9-2.5
		c0-1.6-0.3-2.4-0.9-2.4c-0.3,0-0.6,0.2-0.7,0.6S72.9,111.4,72.9,112.2z M83.9,107.9L76,122.2h-2.3l7.9-14.3H83.9z M87.2,117.9
		c0,1.5-0.3,2.6-0.9,3.4s-1.4,1.1-2.5,1.1c-1.1,0-1.9-0.4-2.5-1.2s-0.9-1.9-0.9-3.3c0-3,1.1-4.5,3.4-4.5c1.1,0,1.9,0.4,2.5,1.2
		S87.2,116.5,87.2,117.9z M82.9,117.9c0,0.8,0.1,1.4,0.2,1.9s0.4,0.6,0.7,0.6c0.6,0,0.9-0.8,0.9-2.5c0-1.6-0.3-2.4-0.9-2.4
		c-0.3,0-0.6,0.2-0.7,0.6S82.9,117.1,82.9,117.9z"/>
</g>
</svg>
