<?xml version="1.0" encoding="utf-8"?>
<!-- Generator: Adobe Illustrator 16.0.0, SVG Export Plug-In . SVG Version: 6.00 Build 0)  -->
<!DOCTYPE svg PUBLIC "-//W3C//DTD SVG 1.1//EN" "http://www.w3.org/Graphics/SVG/1.1/DTD/svg11.dtd">
<svg version="1.1" id="Ebene_1" xmlns="http://www.w3.org/2000/svg" xmlns:xlink="http://www.w3.org/1999/xlink" x="0px" y="0px"
	 width="240px" height="240px" viewBox="0 0 240 240" enable-background="new 0 0 240 240" xml:space="preserve">
<g opacity="0.8">
	<path fill="#D81D09" stroke="#000000" stroke-linecap="round" stroke-linejoin="round" d="M226.3,162.7l1.3-6.4l-2.5-3.9v-9
		l-7.6,1.3v-7.6l-2.5-2.5l2.5-7.6l-2.5-6.4l-17.8-7.6l-3.9-9l-5.1-2.5v-7.6l-3.9,2.5l-1.3-5.1l-2.5-1.3l-11.5,3.9l-9-3.9l-3.9,2.5
		l-6.4-2.5V79.8l-6.4-1.3V76l-5.1-2.5l1.3-6.4l-3.9-2.5v-3.9l-2.5-1.3v3.9l-5.1,2.5l-3.9,6.4l-6.4-1.3l-2.5,14l-9-2.5l-1.3,2.5
		l-5.1-2.5l-1.3-5.1l-7.6-5.1l-7.6,5.1l-3.9-2.5l-6.4,5.1l-3.9-1.3l-7.3-8.9l-1.3-7.6l-3.8-1.2l-1.3,2.5l-5.1-1.3l-5.1,3.9
		l-11.5-1.3l-3.9,9l-5.1-1.3v5.1l-2.5,1.3L18.4,76l-3.8,2.5L12,77.2l-3.8,9v7.6l3.9,3.9l1.3,12.7l3.8,1.3l-5.1,7.6l2.5,12.7
		l-3.9,2.5v6.4h23l3.9-3.9h3.9l1.3-3.9l7.6-1.3l15.3,6.4l2.5-2.5l20.4,1.3v10.2h2.5l1.3,2.5l-2.5,2.5l1.3,6.4l20.4,1.3l-1.3,3.9
		l6.4,1.3l2.5-2.5l3.9,3.9l-1.3,3.9l2.5-5.1l10.2-2.5l5.1-9l3.9,2.5l3.9-1.3l3.9,5.1l-1.3,3.9l2.5,5.1l1.3-1.3l1.3,6.4l3.9-2.5
		l1.3,2.5h3.9l1.3,6.4l10.2,2.5v-2.5l3.9,1.3l2.5-2.5h5.1l1.3-3.9l6.4,1.3l-1.3,2.5h3.9l2.5-3.9l-1.3-2.5l5.1-1.3l1.3-2.5l12.7,5.1
		l10.2-5.1l5.1,2.5L226.3,162.7z M153.6,138.5l-3.9,1.3l-6.4-11.5l-2.5,3.9h-3.9l-1.3-3.9h-2.5l-2.5,9l-2.5,2.5l1.3,1.3l-2.5,3.9
		l-2.5,1.3l-3.9-10.2l-5.1-1.3l1.3-2.5l-2.5-1.3v-3.9l-2.5-2.5v-3.9l2.5-1.3l-2.5-2.5l1.3-2.5l9,1.3l2.5-3.9l5.1,2.5l3.9-1.3
		l6.4,7.6h6.4v5.1l7.6,2.5L153.6,138.5L153.6,138.5z"/>
	<polygon fill="#F7EEC1" stroke="#000000" stroke-linecap="round" stroke-linejoin="round" points="146,120.6 139.6,120.6 
		133.2,112.9 129.4,114.2 124.3,111.7 121.7,115.5 112.8,114.2 111.6,116.8 114.1,119.3 111.6,120.6 111.6,124.4 114.1,127 
		114.1,130.8 116.7,132.1 115.3,134.6 120.4,135.9 124.3,146.1 126.8,144.9 129.4,141 128.2,139.7 130.7,137.2 133.2,128.3 
		135.8,128.3 137,132.1 140.9,132.1 143.4,128.3 149.8,139.7 153.6,138.5 153.6,128.3 146,125.7 	"/>
</g>
</svg>
